<svg xmlns="http://www.w3.org/2000/svg" width="200" height="200" fill="none" viewBox="0 0 200 200"><path fill="#272639" d="M142.017 48.181H56.14v94.774l90.905 1.934V57.465z"/><path fill="url(#a)" d="M31.383 162.466v-47.75c8.714 12.856 19.365 20.967 23.602 23.416.454 1.377 1.543 4.408 2.27 5.51 3.267 3.305 29.501 14.845 42.21 20.202z"/><path fill="url(#b)" d="m54.077 162.925-22.694-22.497v22.497z"/><path fill="url(#c)" d="M53.623 144.101v18.824l-22.24-22.497v-25.712l3.177 4.132c2.542 5.51 13.768 18.978 19.063 25.253"/><path fill="url(#d)" d="m78.587 163.385-24.964-17.448v16.988z"/><path fill="url(#e)" d="M35.014 119.767q.066.133.142.279c1.709 2.852 14.429 14.1 19.829 18.086l2.269 5.51c-1.967-1.225-6.627-4.316-9.532-6.887-2.834-2.509-10.509-12.799-12.566-16.709a2 2 0 0 1-.142-.279"/><path fill="url(#f)" d="M85.395 157.875c-17.066-4.775-28.292-11.172-31.772-13.774v1.836l24.964 17.448h7.716z"/><path fill="url(#g)" d="M144.338 142.568H84.836l-12.238 9.8v9.354l27.008 24.945 24.898-24.945 3.376 3.118v-6.236z"/><path fill="url(#h)" d="m90.322 148.359 10.55-5.791H84.836l-11.394 8.909c16.205 9.978 39.668 19.599 46.842 14.254-8.778-2.138-23.914-12.621-29.962-17.372"/><path fill="#362940" d="M108.468 153.151c-3.714-2.138-5.205-1.782-5.486-1.336 1.35 1.069 12.097 7.869 17.302 11.136-2.391-2.376-8.103-7.662-11.816-9.8"/><path fill="#272639" d="M124.925 164.84c0 .891-1.688 1.336-2.11 1.336.282-.297.676-.98 0-1.336-.844-.445-4.642.445-5.486.445-.675 0-1.406.297-1.688.446-2.363.356-16.176 9.057-22.788 13.363 7.174-10.69 22.788-14.254 24.054-14.254s6.33-2.673 7.174-2.673.844 1.782.844 2.673"/><path fill="url(#i)" d="M52.52 48.955c0 1.547-13.847 16.891-20.77 24.37l-2.36-.773c-3.022-.62-8.183 2.32-10.386 3.868 1.888-4.023 7.71-5.029 10.385-5.029l-.944-41.778 46.263-.773-23.132 16.246z"/><path fill="url(#j)" d="M31.75 48.955v24.37l10.858-11.992 7.08-8.123 1.889-8.123 23.13-16.247-18.882.386z"/><path fill="#272639" d="M51.105 42.766C46.006 46.126 35.47 56.554 34.11 71.39c.567-4.435 4.759-16.369 16.995-28.626"/><path fill="url(#k)" d="M51.105 51.663c3.304-3.869 1.416-5.803 0-6.963-7.553 4.332-15.578 19.986-16.995 25.917z"/><path fill="url(#l)" d="M140.47 101.564c-8.091 2.154-15.115 13.015-17.616 18.176-.783 3.231 1.196 2.917 2.283 2.356 4.698-11.848 12.179-18.625 15.333-20.532"/><path fill="url(#m)" d="M84.766 126.321c-1.915-3.517-11.569-6.572-16.157-7.659-2.872-.34-2.593.52-2.094.993 10.531 2.042 16.555 5.295 18.25 6.666"/><path fill="#FE7506" d="M169.868 73.712c-.928-3.714-6.189-12.379-8.897-16.247v-2.708c6.189 6.19 8.382 15.216 8.897 18.955"/><path fill="url(#n)" d="M160.585 71.778c-8.665-16.092-13.539-23.984-37.91-42.552h39.07z"/><path fill="url(#o)" d="M160.971 51.276c-.619-.929-14.184-14.958-21.662-22.05h22.436z"/><circle cx="155.169" cy="52.436" r="1.547" fill="url(#p)"/><circle cx="148.206" cy="47.794" r="1.547" fill="url(#q)"/><circle cx="150.914" cy="53.597" r=".387" fill="url(#r)"/><circle cx="154.782" cy="59.786" r=".387" fill="url(#s)"/><circle cx="157.877" cy="58.239" r=".387" fill="url(#t)"/><circle cx="158.65" cy="55.144" r=".387" fill="url(#u)"/><circle cx="90.568" cy="161.523" r="1.16" fill="url(#v)"/><circle cx="83.218" cy="163.457" r=".774" fill="url(#w)"/><circle cx="85.926" cy="166.165" r=".387" fill="url(#x)"/><circle cx="89.794" cy="172.354" r=".387" fill="url(#y)"/><circle cx="92.889" cy="170.807" r=".387" fill="url(#z)"/><circle cx="93.663" cy="167.712" r=".387" fill="url(#A)"/><path fill="url(#B)" d="M141.63 48.181 98.266 12.593 56.14 48.18z"/><path fill="url(#C)" d="M66.878 47.576c10.738-9.026 46.255-21.831 68.557-.942-13.491 1.805-51.046 1.87-68.557.942"/><path fill="url(#D)" d="M93.31 31.547c.33-.928-2.891-7.865-4.13-11.218L56.14 48.181h30.15c2.202-5.158 6.69-15.705 7.02-16.634"/><path fill="#B03646" d="M94.135 34.28c-1.321 0-8.81 5.93-12.39 8.896C89.18 37.375 92.897 36.6 96.2 36.215c2.644-.31 14.042-.13 19.411 0-7.434-2.322-19.824-1.935-21.476-1.935"/><path fill="#272639" d="M116.437 35.863c-5.286.31-8.259 7.608-9.085 11.218 4.955-8.356 12.252-10.187 15.28-10.058.138-.515-.908-1.47-6.195-1.16"/><path fill="#762148" d="M128.001 43.54c-1.321 0-14.317 3.094-20.649 4.641h30.974c-2.891-1.547-9.003-4.642-10.325-4.642"/><path fill="url(#E)" d="M66.971 125.547v-63.44l16.416 18.181v27.465z"/><path fill="url(#F)" d="M119.576 61.333 86.372 97.696l32.458 34.041h21.639l-35.07-37.523 30.22-32.88z"/><path stroke="url(#G)" stroke-width="1.547" d="M66.971 125.547v-63.44l16.416 18.181v27.465z"/><path stroke="url(#H)" stroke-width="1.547" d="M119.576 61.333 86.372 97.696l32.458 34.041h21.639l-35.07-37.523 30.22-32.88z"/><path fill="#EE9B3D" d="m184.181 96.922-37.136 42.164V96.922z"/><path fill="url(#I)" d="M166.387 117.424c-1.857 1.857-13.797 8.768-19.342 11.992v-6.19c8.975-8.355 21.405-12.765 26.305-13.926-1.547 1.935-5.106 6.267-6.963 8.124"/><path fill="url(#J)" d="M147.045 96.922v26.304c7.428-7.117 20.76-12.249 26.305-13.926l10.831-12.378z"/><path fill="url(#K)" d="M147.045 61.333v35.589h37.136c-7.221-8.382-24.061-27.233-32.107-35.589s-16.762-12.25-20.115-13.152c6.189 4.023 12.379 10.445 15.086 13.152"/><path fill="#272639" d="M133.893 62.107h-13.974l-2.822 3.095h13.929z"/><path fill="url(#L)" d="M157.148 77.96c-.661-8.347-5.477-13.236-10.102-16.627v3.095c8.181 6.19 8.794 10.086 10.102 13.531"/><path fill="url(#M)" d="m49.177 66.362 6.963-10.057V76.42z"/><path fill="url(#N)" d="M44.613 77.967c-.619-3.713 2.579-8.51 4.255-10.444.31.928 5.08 7.607 7.272 10.831v11.218z"/><path fill="url(#O)" d="M19.004 90.901c1.324-2.65 14.348-14.626 20.694-20.284v9.521c.662 2.319 10.761 10.35 14.9 12.833v35.186c-7.616-6.954-14.624-30.219-16.97-40.981-2.648 17.22 9.934 35.6 16.556 42.637v2.898c-20.094-17.608-24.349-25.732-35.18-41.81"/><path fill="url(#P)" d="M38.043 99.594c-4.305.332 2.759 18.522 1.655 19.764L23.646 98.856l-7.35-7.54h16.366c.994-3.644 5.38-12.006 7.036-13.248v2.07c2.07 3.312 10.347 7.865 14.9 10.763v8.693c-4.087-.993-11.27-.414-13.658 0-.662-.662-2.483-8.555-3.311-12.418-.828 4.14 0 9.935.414 12.418"/><path fill="url(#Q)" d="M52.115 126.98c-.662-.331-.828.69-.828 1.242.662 2.649 4.139 6.347 5.794 7.865 7.285 7.617 17.108 10.073 21.108 10.349-11.174-5.381-19.452-11.591-21.107-13.66-1.656-2.07-4.14-5.382-4.967-5.796"/><path fill="url(#R)" d="M32.662 91.315H16.296c.332-1.325 16.642-14.488 23.402-20.698v7.451c-1.655 1.325-5.38 9.384-7.036 13.247"/><path fill="url(#S)" d="M152.074 139.473c-.619.929-17.923 16.892-25.918 25.144H166v-43.712c-4.384 5.803-13.307 17.64-13.926 18.568"/><path fill="url(#T)" d="m160.971 147.984 1.547-22.05c-2.727 3.908-9.977 16.781-10.831 17.794s-12.078 15.151-18.955 21.276l15.296-.317z"/><path fill="#272639" d="M146.658 117.424v-1.547c3.095.928 15.473-9.155 21.276-14.313-2.785 6.499-13.023 11.992-17.794 13.926 1.676-.387 6.266-.851 11.218.387 6.189 1.547 10.057 12.378 6.189 8.897-3.868-3.482-8.51-6.963-13.152-8.511-3.714-1.237-6.705.258-7.737 1.161"/><defs><linearGradient id="a" x1="65.424" x2="65.424" y1="114.716" y2="163.844" gradientUnits="userSpaceOnUse"><stop stop-color="#2DA69E"/><stop offset="1" stop-color="#2EA1A0"/></linearGradient><linearGradient id="b" x1="42.73" x2="42.73" y1="140.428" y2="162.925" gradientUnits="userSpaceOnUse"><stop stop-color="#5E3A56"/><stop offset="1" stop-color="#5C445A"/></linearGradient><linearGradient id="c" x1="42.503" x2="42.503" y1="114.716" y2="162.925" gradientUnits="userSpaceOnUse"><stop stop-color="#404F5A"/><stop offset="1" stop-color="#375861"/></linearGradient><linearGradient id="d" x1="66.105" x2="66.105" y1="145.937" y2="163.385" gradientUnits="userSpaceOnUse"><stop stop-color="#328C8A"/><stop offset="1" stop-color="#2E8C8B"/></linearGradient><linearGradient id="e" x1="46.134" x2="46.134" y1="119.767" y2="143.642" gradientUnits="userSpaceOnUse"><stop stop-color="#336169"/><stop offset="1" stop-color="#3A6774"/></linearGradient><linearGradient id="f" x1="54.077" x2="100.172" y1="146.396" y2="172.113" gradientUnits="userSpaceOnUse"><stop stop-color="#356873"/><stop offset="1" stop-color="#34B0AD"/></linearGradient><linearGradient id="g" x1="144.338" x2="85.839" y1="142.568" y2="174.999" gradientUnits="userSpaceOnUse"><stop stop-color="#E1555A"/><stop offset="1" stop-color="#721C43"/></linearGradient><linearGradient id="h" x1="96.019" x2="121.881" y1="142.568" y2="186.365" gradientUnits="userSpaceOnUse"><stop stop-color="#42072A"/><stop offset="1" stop-color="#520C34"/></linearGradient><linearGradient id="i" x1="46.856" x2="46.856" y1="28.84" y2="76.42" gradientUnits="userSpaceOnUse"><stop stop-color="#EE7543"/><stop offset="1" stop-color="#CF4F5E"/></linearGradient><linearGradient id="j" x1="73.764" x2="40.907" y1="29.613" y2="78.62" gradientUnits="userSpaceOnUse"><stop stop-color="#CC4C4B"/><stop offset="1" stop-color="#83304E"/></linearGradient><linearGradient id="k" x1="47.8" x2="37.998" y1="47.407" y2="72.157" gradientUnits="userSpaceOnUse"><stop stop-color="#F5854A"/><stop offset="1" stop-color="#D66D40"/></linearGradient><linearGradient id="l" x1="131.572" x2="131.572" y1="101.564" y2="122.453" gradientUnits="userSpaceOnUse"><stop stop-color="#53B9BF"/><stop offset="1" stop-color="#227880"/></linearGradient><linearGradient id="m" x1="84.766" x2="66.198" y1="122.453" y2="122.453" gradientUnits="userSpaceOnUse"><stop stop-color="#42B1B8"/><stop offset="1" stop-color="#22626A"/></linearGradient><linearGradient id="n" x1="143.37" x2="143.37" y1="28.453" y2="71.778" gradientUnits="userSpaceOnUse"><stop stop-color="#47EDDD"/><stop offset="1" stop-color="#389398"/></linearGradient><linearGradient id="o" x1="161.358" x2="150.527" y1="29.613" y2="42.766" gradientUnits="userSpaceOnUse"><stop stop-color="#49EDDD"/><stop offset="1" stop-color="#30B8AA"/></linearGradient><linearGradient id="B" x1="98.885" x2="98.885" y1="12.593" y2="48.181" gradientUnits="userSpaceOnUse"><stop stop-color="#FF9F51"/><stop offset="1" stop-color="#C5691F"/></linearGradient><linearGradient id="C" x1="101.156" x2="101.156" y1="35.342" y2="48.166" gradientUnits="userSpaceOnUse"><stop stop-color="#CA563A"/><stop offset="1" stop-color="#BD4022"/></linearGradient><linearGradient id="D" x1="74.737" x2="74.737" y1="20.329" y2="48.181" gradientUnits="userSpaceOnUse"><stop stop-color="#FE7506"/><stop offset="1" stop-color="#DA6405"/></linearGradient><linearGradient id="E" x1="103.72" x2="103.72" y1="61.333" y2="131.737" gradientUnits="userSpaceOnUse"><stop stop-color="#F6CE97"/><stop offset="1" stop-color="#E85245"/></linearGradient><linearGradient id="F" x1="103.72" x2="103.72" y1="61.333" y2="131.737" gradientUnits="userSpaceOnUse"><stop stop-color="#F6CE97"/><stop offset="1" stop-color="#E85245"/></linearGradient><linearGradient id="G" x1="103.72" x2="103.72" y1="61.333" y2="131.737" gradientUnits="userSpaceOnUse"><stop stop-color="#F5ECD3"/><stop offset="1" stop-color="#FDB651"/></linearGradient><linearGradient id="H" x1="103.72" x2="103.72" y1="61.333" y2="131.737" gradientUnits="userSpaceOnUse"><stop stop-color="#F5ECD3"/><stop offset="1" stop-color="#FDB651"/></linearGradient><linearGradient id="I" x1="171.416" x2="148.593" y1="109.3" y2="127.868" gradientUnits="userSpaceOnUse"><stop stop-color="#E77B32"/><stop offset="1" stop-color="#DF662C"/></linearGradient><linearGradient id="J" x1="184.568" x2="147.432" y1="96.922" y2="123.226" gradientUnits="userSpaceOnUse"><stop stop-color="#F39A40"/><stop offset="1" stop-color="#E87739"/></linearGradient><linearGradient id="K" x1="158.07" x2="158.07" y1="48.181" y2="96.922" gradientUnits="userSpaceOnUse"><stop stop-color="#EDA535"/><stop offset="1" stop-color="#F2AB3C"/></linearGradient><linearGradient id="L" x1="158.752" x2="138.205" y1="69.208" y2="65.443" gradientUnits="userSpaceOnUse"><stop stop-color="#04C8C9"/><stop offset="1" stop-color="#099CAD"/></linearGradient><linearGradient id="M" x1="52.658" x2="52.658" y1="57.465" y2="76.807" gradientUnits="userSpaceOnUse"><stop stop-color="#D3564A"/><stop offset="1" stop-color="#9B3C4D"/></linearGradient><linearGradient id="N" x1="50.183" x2="50.183" y1="67.523" y2="89.572" gradientUnits="userSpaceOnUse"><stop stop-color="#4E2343"/><stop offset="1" stop-color="#593957"/></linearGradient><linearGradient id="O" x1="36.594" x2="36.594" y1="70.617" y2="132.711" gradientUnits="userSpaceOnUse"><stop stop-color="#656A7A"/><stop offset="1" stop-color="#6C6B7C"/></linearGradient><linearGradient id="P" x1="36.109" x2="36.109" y1="78.069" y2="103.734" gradientUnits="userSpaceOnUse"><stop stop-color="#643658"/><stop offset="1" stop-color="#654B69"/></linearGradient><linearGradient id="Q" x1="51.287" x2="77.779" y1="128.157" y2="146.367" gradientUnits="userSpaceOnUse"><stop stop-color="#155E6D"/><stop offset="1" stop-color="#40B5BF"/></linearGradient><linearGradient id="R" x1="39.698" x2="19" y1="70.617" y2="91.311" gradientUnits="userSpaceOnUse"><stop stop-color="#C34E6F"/><stop offset="1" stop-color="#BB4F75"/></linearGradient><linearGradient id="S" x1="146.658" x2="146.658" y1="120.905" y2="165.391" gradientUnits="userSpaceOnUse"><stop stop-color="#F28A48"/><stop offset="1" stop-color="#AA3754"/></linearGradient><linearGradient id="T" x1="157.876" x2="135.827" y1="128.642" y2="170.033" gradientUnits="userSpaceOnUse"><stop stop-color="#4E143C"/><stop offset="1" stop-color="#932C53" stop-opacity=".2"/></linearGradient><radialGradient id="p" cx="0" cy="0" r="1" gradientTransform="rotate(90 51.366 103.803)scale(1.54733)" gradientUnits="userSpaceOnUse"><stop stop-color="#65F9E5"/><stop offset="1" stop-color="#FFF8FF" stop-opacity="0"/></radialGradient><radialGradient id="q" cx="0" cy="0" r="1" gradientTransform="rotate(90 50.206 98)scale(1.54733)" gradientUnits="userSpaceOnUse"><stop stop-color="#65F9E5"/><stop offset="1" stop-color="#FFF8FF" stop-opacity="0"/></radialGradient><radialGradient id="r" cx="0" cy="0" r="1" gradientTransform="rotate(90 48.658 102.255)scale(.38683)" gradientUnits="userSpaceOnUse"><stop stop-color="#65F9E5"/><stop offset="1" stop-color="#FFF8FF" stop-opacity="0"/></radialGradient><radialGradient id="s" cx="0" cy="0" r="1" gradientTransform="rotate(90 47.498 107.284)scale(.38683)" gradientUnits="userSpaceOnUse"><stop stop-color="#65F9E5"/><stop offset="1" stop-color="#FFF8FF" stop-opacity="0"/></radialGradient><radialGradient id="t" cx="0" cy="0" r="1" gradientTransform="rotate(90 49.819 108.058)scale(.38683)" gradientUnits="userSpaceOnUse"><stop stop-color="#65F9E5"/><stop offset="1" stop-color="#FFF8FF" stop-opacity="0"/></radialGradient><radialGradient id="u" cx="0" cy="0" r="1" gradientTransform="rotate(90 51.753 106.897)scale(.38683)" gradientUnits="userSpaceOnUse"><stop stop-color="#65F9E5"/><stop offset="1" stop-color="#FFF8FF" stop-opacity="0"/></radialGradient><radialGradient id="v" cx="0" cy="0" r="1" gradientTransform="rotate(90 -35.478 126.045)scale(1.16049)" gradientUnits="userSpaceOnUse"><stop stop-color="#BF4353"/><stop offset="1" stop-color="#FFF8FF" stop-opacity="0"/></radialGradient><radialGradient id="w" cx="0" cy="0" r="1" gradientTransform="rotate(90 -40.12 123.338)scale(.77366)" gradientUnits="userSpaceOnUse"><stop stop-color="#BF4353"/><stop offset="1" stop-color="#FFF8FF" stop-opacity="0"/></radialGradient><radialGradient id="x" cx="0" cy="0" r="1" gradientTransform="rotate(90 -40.12 126.045)scale(.38683)" gradientUnits="userSpaceOnUse"><stop stop-color="#BF4353"/><stop offset="1" stop-color="#FFF8FF" stop-opacity="0"/></radialGradient><radialGradient id="y" cx="0" cy="0" r="1" gradientTransform="rotate(90 -41.28 131.074)scale(.38683)" gradientUnits="userSpaceOnUse"><stop stop-color="#BF4353"/><stop offset="1" stop-color="#FFF8FF" stop-opacity="0"/></radialGradient><radialGradient id="z" cx="0" cy="0" r="1" gradientTransform="rotate(90 -38.959 131.848)scale(.38683)" gradientUnits="userSpaceOnUse"><stop stop-color="#BF4353"/><stop offset="1" stop-color="#FFF8FF" stop-opacity="0"/></radialGradient><radialGradient id="A" cx="0" cy="0" r="1" gradientTransform="rotate(90 -37.025 130.687)scale(.38683)" gradientUnits="userSpaceOnUse"><stop stop-color="#BF4353"/><stop offset="1" stop-color="#FFF8FF" stop-opacity="0"/></radialGradient></defs></svg>