<?xml version="1.0" encoding="UTF-8"?>
<svg id="Calque_2" data-name="Calque 2" xmlns="http://www.w3.org/2000/svg" viewBox="0 0 815.2399902344 112">
  <defs>
    <style>
      .cls-1 {
        fill: #0dab0c;
      }

      .cls-1, .cls-2 {
        stroke-width: 0px;
      }

      .cls-2 {
        fill: #ff7600;
      }
    </style>
  </defs>
  <g id="Calque_1-2" data-name="Calque 1">
    <g>
      <path class="cls-2" d="M348.1371648438,9.4238897028v17.1391440375c-9.4282620031-10.7252817777-23.2376826708-17.5070929098-38.6419049911-17.5070929098-28.3723877903,0-51.4698434346,23.0973486824-51.4698434346,51.4696295108,0,28.3724947522,23.0974556442,51.4700573583,51.4698434346,51.4700573583,15.4042223203,0,29.213642988-6.7822389796,38.6419049911-17.5070929098v17.1391440376h17.5246346583V9.4238897028h-17.5246346583ZM309.4952598527,94.48853479c-18.7338387282,0-33.9452087762-15.246560507-33.9452087762-33.9629644486,0-18.7161900178,15.211370048-33.962536601,33.9452087762-33.962536601s33.9627505248,15.2463465832,33.9627505248,33.962536601c0,18.7164039416-15.2289117966,33.9629644486-33.9627505248,33.9629644486Z"/>
      <path class="cls-2" d="M569.3330521595,9.4238897028v17.1391440375c-9.393178506-10.7252817777-23.2376826709-17.5070929098-38.6242562807-17.5070929098-28.3723877903,0-51.4698434345,23.0973486824-51.4698434345,51.4696295108,0,28.3724947522,23.0974556442,51.4700573583,51.4698434345,51.4700573583,15.3865736098,0,29.2310777747-6.7822389796,38.6242562807-17.5070929098v17.1391440376h17.5246346583V9.4238897028h-17.5246346583ZM530.7087958788,94.48853479c-18.7162969797,0-33.9627505248-15.246560507-33.9627505248-33.9629644486,0-18.7161900178,15.2464535451-33.962536601,33.9627505248-33.962536601,18.7338387282,0,33.9452087762,15.2463465832,33.9452087762,33.962536601,0,18.7164039416-15.211370048,33.9629644486-33.9452087762,33.9629644486Z"/>
      <path class="cls-2" d="M657.220151326,12.0802534403v17.5159263945c-19.1424663647,0-34.706544795,15.5891256186-34.706544795,34.7315919833v47.2930623559h-17.5159263945V9.4278478382h17.5159263945v15.9144336126c9.2334015942-8.2574776121,21.3944224079-13.2620280105,34.706544795-13.2620280105Z"/>
      <path class="cls-2" d="M711.0372223358,9.0559408306c-28.3723877903,0-51.4698434346,23.0798069338-51.4698434346,51.4696295108,0,28.3900365008,23.0974556443,51.4700573583,51.4698434346,51.4700573583,28.3899295389,0,51.4698434346-23.0800208576,51.4698434346-51.4700573583,0-28.389822577-23.0799138957-51.4696295108-51.4698434346-51.4696295108ZM711.0372223358,94.48853479c-18.7162969796,0-33.9627505248-15.246560507-33.9627505248-33.9629644486,0-18.7161900178,15.2464535451-33.962536601,33.9627505248-33.962536601,18.7338387282,0,33.9627505248,15.2463465832,33.9627505248,33.962536601,0,18.7164039416-15.2289117966,33.9629644486-33.9627505248,33.9629644486Z"/>
      <path class="cls-2" d="M796.3300170898,37.1796875v47.740234375c0,5.2700195312,4.2799682617,9.5698242188,9.549987793,9.5698242188h9.3599853516v17.5102539062h-9.3599853516c-14.9299926758,0-27.0700073242-12.1298828125-27.0700073242-27.080078125v-47.740234375h-7.6799926758v-17.51953125h7.6799926758V0h17.5200195312v19.66015625h18.9099731445v17.51953125h-18.9099731445Z"/>
      <path class="cls-2" d="M253.5,111.6201171875h-17.6099853516c-2.9799804688-23.8203125-23.4000244141-42.3403320312-48.049987793-42.3403320312h-7.5500488281v42.3403320312h-17.5199584961V9.4296875h17.5199584961v42.3403320312h7.5500488281c24.6499633789,0,45.0700073242-18.5200195312,48.049987793-42.3403320312h17.6099853516c-2,21.8701171875-14.7399902344,40.6801757812-32.8800048828,51.0903320312,18.1400146484,10.4096679688,30.8800048828,29.2299804688,32.8800048828,51.1000976562Z"/>
      <g>
        <path class="cls-1" d="M102.200012207,9.4497070312v17.7700195312c-23.8200073242,3.1801757812-42.2700195312,23.6801757812-42.2700195312,48.3901367188v.7001953125h-17.6599731445v-.7001953125C42.2700195312,50.8999023438,23.8200073242,30.3999023438,0,27.2197265625V9.4497070312c21.8699951172,2.1401367188,40.6700439453,14.9301757812,51.1000366211,33.1103515625,10.4299926758-18.1801757812,29.2299804688-30.9702148438,51.0999755859-33.1103515625Z"/>
        <path class="cls-1" d="M42.2764436498,72.2342032111h.1009799088c-.0757349316,1.1101342652-.1009799088,2.2455233535-.1009799088,3.3809124418v-3.3809124418Z"/>
        <path class="cls-1" d="M59.8298612472,72.2342032111h.1008259761v3.3809124418c0-1.1353890883-.0250910444-2.2707781766-.1008259761-3.3809124418Z"/>
      </g>
      <rect class="cls-2" x=".0021332208" y="93.9783884534" width="102.1999511719" height="17.6670439338"/>
      <path class="cls-2" d="M474.6099853516,111.6201171875h-17.6099853516c-2.9799804688-23.8203125-23.4000244141-42.3403320312-48.049987793-42.3403320312h-7.549987793v42.3403320312h-17.5200195312V9.4296875h17.5200195312v42.3403320312h7.549987793c24.6499633789,0,45.0700073242-18.5200195312,48.049987793-42.3403320312h17.6099853516c-2,21.8701171875-14.7399902344,40.6801757812-32.8800048828,51.0903320312,18.1400146484,10.4096679688,30.8800048828,29.2299804688,32.8800048828,51.1000976562Z"/>
    </g>
  </g>
</svg>
