<svg width="1400" height="1400" viewBox="0 0 1400 1400" fill="none" xmlns="http://www.w3.org/2000/svg">
<path d="M196 476V196L476 196.014L196 476Z" fill="#FF6B1A"/>
<path d="M476 1204H196L196.014 924L476 1204Z" fill="#FF6B1A"/>
<path d="M924 196L1204 196L1203.99 476L924 196Z" fill="#FF6B1A"/>
<path d="M1204 924V1204L924 1203.99L1204 924Z" fill="#FF6B1A"/>
<path d="M442.757 903.086V459.004L557.667 586.271V778.526L442.757 903.086Z" fill="#FFA500"/>
<path d="M810.993 453.588L578.56 708.123L805.77 946.411H957.242L711.752 683.752L923.292 453.588H810.993Z" fill="#FFA500"/>
<path d="M380.985 403.015L84 700L380.985 996.985V403.015Z" fill="#FFA500"/>
<path d="M996.985 380.985L700 84L403.015 380.985H996.985Z" fill="#FF6B1A"/>
<path d="M403.015 1019.02L700 1316L996.985 1019.02H403.015Z" fill="#FF6B1A"/>
<path d="M1019.02 1010.57L1316 713.59L1019.02 416.605V1010.57Z" fill="#FFA500"/>
</svg>
