<svg width="713" height="693" viewBox="0 0 713 693" fill="none" xmlns="http://www.w3.org/2000/svg">
<path d="M356.962 675.862C538.643 675.862 685.925 528.371 685.925 346.431C685.925 164.491 538.643 17 356.962 17C175.281 17 28 164.491 28 346.431C28 528.371 175.281 675.862 356.962 675.862Z" stroke="url(#paint0_linear_566_9141)" stroke-width="0.937215" stroke-linecap="round" stroke-dasharray="3.75 5.62"/>
<path d="M103.237 553.489C95.7919 560.328 84.2125 559.835 77.3741 552.39C70.5357 544.944 71.0279 533.365 78.4734 526.526C85.9189 519.688 97.4983 520.18 104.337 527.626C111.175 535.071 110.683 546.651 103.237 553.489Z" fill="#FEBA2A" stroke="black" stroke-width="0.0800776"/>
<g filter="url(#filter0_f_566_9141)">
<ellipse cx="91.1046" cy="540.548" rx="15.5443" ry="15.2804" transform="rotate(47.4338 91.1046 540.548)" fill="#FB6E05"/>
</g>
<path d="M89.6107 541.058L89.8676 543.751L91.0961 541.535L93.7627 542.39L91.8041 540.257L93.1745 537.785L90.6029 538.95L88.6558 536.83L89.2708 539.553L86.9691 540.595L89.6107 541.058Z" fill="#DF4104" stroke="#D13600" stroke-width="0.115027"/>
<g filter="url(#filter1_f_566_9141)">
<ellipse cx="89.8747" cy="531.29" rx="9.11148" ry="9.11144" transform="rotate(47.4338 89.8747 531.29)" fill="url(#paint1_angular_566_9141)"/>
<ellipse cx="89.8747" cy="531.29" rx="9.11148" ry="9.11144" transform="rotate(47.4338 89.8747 531.29)" fill="url(#paint2_linear_566_9141)" fill-opacity="0.2"/>
</g>
<g filter="url(#filter2_f_566_9141)">
<path d="M105.565 534.242C104.995 533.289 104.566 532.799 103.373 531.406C101.474 529.468 99.5086 528.031 97.5372 527.04C100.677 527.001 102.955 528.07 104.673 530.212C107.249 534.156 105.866 534.93 105.565 534.242Z" fill="white" fill-opacity="0.25"/>
<path d="M74.4721 545.028C74.204 538.879 76.3591 533.523 79.855 529.949C82.3509 527.657 80.8435 525.836 78.258 528.21C74.7141 531.913 72.8531 537.585 74.4721 545.028Z" fill="white" fill-opacity="0.25"/>
</g>
<path d="M97.4095 544.464L97.6664 547.157L98.895 544.941L101.562 545.796L99.6029 543.664L100.973 541.191L98.4017 542.356L96.4546 540.236L97.0696 542.959L94.7679 544.001L97.4095 544.464Z" fill="#DF4104" stroke="#D13600" stroke-width="0.115027"/>
<path d="M80.7728 541.32L81.0297 544.013L82.2582 541.796L84.9248 542.652L82.9662 540.519L84.3366 538.047L81.765 539.211L79.8179 537.091L80.4329 539.815L78.1312 540.857L80.7728 541.32Z" fill="#DF4104" stroke="#D13600" stroke-width="0.115027"/>
<path d="M86.8705 532.992L87.1274 535.685L88.3559 533.468L91.0225 534.324L89.0638 532.191L90.4342 529.719L87.8626 530.883L85.9155 528.763L86.5305 531.486L84.2288 532.529L86.8705 532.992Z" fill="#DF4104" fill-opacity="0.25" stroke="#D13600" stroke-width="0.115027"/>
<path d="M88.5931 549.834L88.85 552.527L90.0786 550.31L92.7451 551.165L90.7865 549.033L92.1569 546.56L89.5853 547.725L87.6382 545.605L88.2532 548.328L85.9515 549.371L88.5931 549.834Z" fill="#DF4104" stroke="#D13600" stroke-width="0.115027"/>
<path d="M97.3998 533.947L97.6567 536.64L98.8852 534.423L101.552 535.279L99.5931 533.146L100.964 530.674L98.3919 531.838L96.4448 529.718L97.0598 532.442L94.7581 533.484L97.3998 533.947Z" fill="#DF4104" fill-opacity="0.25" stroke="#D13600" stroke-width="0.115027"/>
<path d="M541.487 583.674C549.07 568.525 567.498 562.391 582.647 569.974V569.974C597.796 577.557 603.93 595.985 596.347 611.134L595.452 612.923C587.869 628.072 569.441 634.206 554.291 626.623V626.623C539.142 619.04 533.009 600.612 540.591 585.463L541.487 583.674Z" fill="white" fill-opacity="0.1"/>
<g clip-path="url(#clip0_566_9141)">
<path d="M558.696 615.226C568.045 620.624 579.999 617.421 585.397 608.072C590.794 598.723 587.591 586.769 578.242 581.371C568.893 575.973 556.939 579.176 551.541 588.525C546.144 597.874 549.347 609.829 558.696 615.226Z" fill="#627EEA"/>
<path d="M576.324 585.908L570.906 595.293L576.792 603.416L576.324 585.908Z" fill="white" fill-opacity="0.602"/>
<path d="M576.325 585.908L560.928 594.257L570.907 595.292L576.325 585.908Z" fill="white"/>
<path d="M565.348 604.919L561.666 611.295L575.943 604.897L565.348 604.919Z" fill="white" fill-opacity="0.602"/>
<path d="M561.667 611.295L565.349 604.918L560.074 595.734L561.667 611.295Z" fill="white"/>
<path d="M566.204 603.442L576.795 603.416L570.908 595.295L566.204 603.442Z" fill="white" fill-opacity="0.2"/>
<path d="M560.926 594.257L566.199 603.442L570.903 595.295L560.926 594.257Z" fill="white" fill-opacity="0.602"/>
</g>
<path d="M227.513 58.9598C224 66.8978 214.718 70.4854 206.78 66.9729C198.842 63.4604 195.254 54.1779 198.766 46.2398C202.279 38.3018 211.561 34.7141 219.499 38.2267C227.438 41.7392 231.025 51.0217 227.513 58.9598Z" fill="#FEBA2A" stroke="black" stroke-width="0.0969695"/>
<g filter="url(#filter3_f_566_9141)">
<ellipse cx="213.522" cy="52.9403" rx="13.3592" ry="13.1324" transform="rotate(23.8688 213.522 52.9403)" fill="#FB6E05"/>
</g>
<g filter="url(#filter4_f_566_9141)">
<ellipse cx="209.371" cy="46.0697" rx="7.83065" ry="7.83061" transform="rotate(23.8688 209.371 46.0697)" fill="url(#paint3_angular_566_9141)"/>
<ellipse cx="209.371" cy="46.0697" rx="7.83065" ry="7.83061" transform="rotate(23.8688 209.371 46.0697)" fill="url(#paint4_linear_566_9141)" fill-opacity="0.2"/>
</g>
<g filter="url(#filter5_f_566_9141)">
<path d="M222.746 43.0052C221.969 42.45 221.463 42.2111 220.045 41.5239C217.883 40.6495 215.841 40.193 213.948 40.0896C216.408 38.9803 218.569 39.0401 220.659 40.1364C224.043 42.3585 223.22 43.4435 222.746 43.0052Z" fill="white" fill-opacity="0.25"/>
<path d="M201.958 62.1848C199.635 57.4333 199.492 52.4731 201.018 48.4569C202.196 45.7935 200.383 44.8768 199.162 47.6358C197.643 51.7705 198.126 56.878 201.958 62.1848Z" fill="white" fill-opacity="0.25"/>
</g>
<path d="M210.302 49.6809L211.429 51.714L211.636 49.5459L214.03 49.3035L211.755 48.2965L211.985 45.878L210.359 47.679L208.097 46.678L209.517 48.6119L208.062 50.2238L210.302 49.6809Z" fill="#DF4104" stroke="#D13600" stroke-width="0.139292"/>
<path d="M218.069 53.1184L219.197 55.1515L219.403 52.9834L221.798 52.741L219.522 51.734L219.752 49.3155L218.127 51.1165L215.864 50.1155L217.284 52.0494L215.829 53.6613L218.069 53.1184Z" fill="#DF4104" stroke="#D13600" stroke-width="0.139292"/>
<path d="M211.694 57.0305L212.822 59.0636L213.028 56.8955L215.423 56.6531L213.147 55.6461L213.377 53.2276L211.752 55.0286L209.489 54.0276L210.909 55.9615L209.454 57.5735L211.694 57.0305Z" fill="#DF4104" stroke="#D13600" stroke-width="0.139292"/>
<path d="M660.297 184.602C658.911 193.171 650.841 198.994 642.272 197.608C633.703 196.222 627.879 188.152 629.265 179.583C630.651 171.014 638.721 165.191 647.29 166.577C655.86 167.963 661.683 176.033 660.297 184.602Z" fill="#FEBA2A" stroke="black" stroke-width="0.0969695"/>
<g filter="url(#filter6_f_566_9141)">
<ellipse cx="645.238" cy="182.325" rx="13.3592" ry="13.1324" transform="rotate(9.1867 645.238 182.325)" fill="#FB6E05"/>
</g>
<g filter="url(#filter7_f_566_9141)">
<ellipse cx="639.482" cy="176.73" rx="7.83065" ry="7.83061" transform="rotate(9.1867 639.482 176.73)" fill="url(#paint5_angular_566_9141)"/>
<ellipse cx="639.482" cy="176.73" rx="7.83065" ry="7.83061" transform="rotate(9.1867 639.482 176.73)" fill="url(#paint6_linear_566_9141)" fill-opacity="0.2"/>
</g>
<g filter="url(#filter8_f_566_9141)">
<path d="M651.642 170.376C650.75 170.036 650.199 169.933 648.653 169.627C646.34 169.33 644.249 169.405 642.391 169.785C644.49 168.089 646.596 167.599 648.896 168.13C652.732 169.421 652.211 170.68 651.642 170.376Z" fill="white" fill-opacity="0.25"/>
<path d="M636.394 194.198C632.942 190.19 631.546 185.428 632.005 181.157C632.47 178.281 630.483 177.854 630.002 180.833C629.58 185.217 631.341 190.036 636.394 194.198Z" fill="white" fill-opacity="0.25"/>
</g>
<path d="M640.044 182.742L641.65 184.423L641.3 182.274L643.555 181.432L641.098 181.035L640.708 178.637L639.592 180.791L637.15 180.396L639.014 181.907L638.015 183.835L640.044 182.742Z" fill="#DF4104" stroke="#D13600" stroke-width="0.139292"/>
<path d="M649.948 184.344L651.554 186.025L651.204 183.875L653.459 183.034L651.003 182.636L650.612 180.239L649.496 182.393L647.054 181.998L648.918 183.509L647.919 185.437L649.948 184.344Z" fill="#DF4104" stroke="#D13600" stroke-width="0.139292"/>
<path d="M643.778 189.584L645.384 191.265L645.034 189.115L647.289 188.274L644.833 187.877L644.442 185.479L643.326 187.633L640.884 187.238L642.748 188.749L641.749 190.677L643.778 189.584Z" fill="#DF4104" stroke="#D13600" stroke-width="0.139292"/>
<path d="M645.745 177.426L647.351 179.107L647.001 176.957L649.256 176.116L646.799 175.718L646.409 173.321L645.293 175.475L642.851 175.08L644.715 176.591L643.716 178.519L645.745 177.426Z" fill="#DF4104" stroke="#D13600" stroke-width="0.139292"/>
<defs>
<filter id="filter0_f_566_9141" x="69.6973" y="519.119" width="42.8144" height="42.8593" filterUnits="userSpaceOnUse" color-interpolation-filters="sRGB">
<feFlood flood-opacity="0" result="BackgroundImageFix"/>
<feBlend mode="normal" in="SourceGraphic" in2="BackgroundImageFix" result="shape"/>
<feGaussianBlur stdDeviation="3.00291" result="effect1_foregroundBlur_566_9141"/>
</filter>
<filter id="filter1_f_566_9141" x="70.754" y="512.168" width="38.2421" height="38.244" filterUnits="userSpaceOnUse" color-interpolation-filters="sRGB">
<feFlood flood-opacity="0" result="BackgroundImageFix"/>
<feBlend mode="normal" in="SourceGraphic" in2="BackgroundImageFix" result="shape"/>
<feGaussianBlur stdDeviation="5.00485" result="effect1_foregroundBlur_566_9141"/>
</filter>
<filter id="filter2_f_566_9141" x="73.082" y="526.238" width="33.9238" height="19.5898" filterUnits="userSpaceOnUse" color-interpolation-filters="sRGB">
<feFlood flood-opacity="0" result="BackgroundImageFix"/>
<feBlend mode="normal" in="SourceGraphic" in2="BackgroundImageFix" result="shape"/>
<feGaussianBlur stdDeviation="0.400388" result="effect1_foregroundBlur_566_9141"/>
</filter>
<filter id="filter3_f_566_9141" x="192.923" y="32.4949" width="41.1978" height="40.8911" filterUnits="userSpaceOnUse" color-interpolation-filters="sRGB">
<feFlood flood-opacity="0" result="BackgroundImageFix"/>
<feBlend mode="normal" in="SourceGraphic" in2="BackgroundImageFix" result="shape"/>
<feGaussianBlur stdDeviation="3.63635" result="effect1_foregroundBlur_566_9141"/>
</filter>
<filter id="filter4_f_566_9141" x="189.418" y="26.1151" width="39.9064" height="39.9084" filterUnits="userSpaceOnUse" color-interpolation-filters="sRGB">
<feFlood flood-opacity="0" result="BackgroundImageFix"/>
<feBlend mode="normal" in="SourceGraphic" in2="BackgroundImageFix" result="shape"/>
<feGaussianBlur stdDeviation="6.06059" result="effect1_foregroundBlur_566_9141"/>
</filter>
<filter id="filter5_f_566_9141" x="197.39" y="38.3155" width="26.7714" height="24.8398" filterUnits="userSpaceOnUse" color-interpolation-filters="sRGB">
<feFlood flood-opacity="0" result="BackgroundImageFix"/>
<feBlend mode="normal" in="SourceGraphic" in2="BackgroundImageFix" result="shape"/>
<feGaussianBlur stdDeviation="0.484847" result="effect1_foregroundBlur_566_9141"/>
</filter>
<filter id="filter6_f_566_9141" x="624.61" y="161.913" width="41.2564" height="40.8247" filterUnits="userSpaceOnUse" color-interpolation-filters="sRGB">
<feFlood flood-opacity="0" result="BackgroundImageFix"/>
<feBlend mode="normal" in="SourceGraphic" in2="BackgroundImageFix" result="shape"/>
<feGaussianBlur stdDeviation="3.63635" result="effect1_foregroundBlur_566_9141"/>
</filter>
<filter id="filter7_f_566_9141" x="619.529" y="156.777" width="39.9064" height="39.9064" filterUnits="userSpaceOnUse" color-interpolation-filters="sRGB">
<feFlood flood-opacity="0" result="BackgroundImageFix"/>
<feBlend mode="normal" in="SourceGraphic" in2="BackgroundImageFix" result="shape"/>
<feGaussianBlur stdDeviation="6.06059" result="effect1_foregroundBlur_566_9141"/>
</filter>
<filter id="filter8_f_566_9141" x="628.972" y="166.956" width="24.0351" height="28.2109" filterUnits="userSpaceOnUse" color-interpolation-filters="sRGB">
<feFlood flood-opacity="0" result="BackgroundImageFix"/>
<feBlend mode="normal" in="SourceGraphic" in2="BackgroundImageFix" result="shape"/>
<feGaussianBlur stdDeviation="0.484847" result="effect1_foregroundBlur_566_9141"/>
</filter>
<linearGradient id="paint0_linear_566_9141" x1="27.5666" y1="16.566" x2="687.296" y2="675.357" gradientUnits="userSpaceOnUse">
<stop offset="0.146" stop-color="#FF9F51" stop-opacity="0"/>
<stop offset="0.302" stop-color="#FF9F51" stop-opacity="0.39"/>
<stop offset="0.427" stop-color="#FF9F51"/>
<stop offset="0.568" stop-color="#FF9F51" stop-opacity="0"/>
<stop offset="0.682" stop-color="#FF9F51" stop-opacity="0.66"/>
<stop offset="0.807" stop-color="#FF9F51" stop-opacity="0.29"/>
<stop offset="0.899" stop-color="#FF9F51" stop-opacity="0.37"/>
</linearGradient>
<radialGradient id="paint1_angular_566_9141" cx="0" cy="0" r="1" gradientUnits="userSpaceOnUse" gradientTransform="translate(89.5906 531.513) rotate(24.8204) scale(1.78865 1.78864)">
<stop offset="0.203125" stop-color="#FB6E05"/>
<stop offset="0.579486" stop-color="#F9FAFE" stop-opacity="0.25"/>
<stop offset="0.89029" stop-color="#FB6F05"/>
</radialGradient>
<linearGradient id="paint2_linear_566_9141" x1="86.6482" y1="529.748" x2="94.4609" y2="535.917" gradientUnits="userSpaceOnUse">
<stop stop-color="#FFF8FF"/>
<stop offset="1" stop-color="#FB6E05"/>
</linearGradient>
<radialGradient id="paint3_angular_566_9141" cx="0" cy="0" r="1" gradientUnits="userSpaceOnUse" gradientTransform="translate(209.127 46.2616) rotate(24.8205) scale(1.53721 1.53721)">
<stop offset="0.203125" stop-color="#FB6E05"/>
<stop offset="0.579486" stop-color="#F9FAFE" stop-opacity="0.25"/>
<stop offset="0.89029" stop-color="#FB6F05"/>
</radialGradient>
<linearGradient id="paint4_linear_566_9141" x1="206.598" y1="44.7443" x2="213.313" y2="50.0461" gradientUnits="userSpaceOnUse">
<stop stop-color="#FFF8FF"/>
<stop offset="1" stop-color="#FB6E05"/>
</linearGradient>
<radialGradient id="paint5_angular_566_9141" cx="0" cy="0" r="1" gradientUnits="userSpaceOnUse" gradientTransform="translate(639.238 176.922) rotate(24.8205) scale(1.53721 1.53721)">
<stop offset="0.203125" stop-color="#FB6E05"/>
<stop offset="0.579486" stop-color="#F9FAFE" stop-opacity="0.25"/>
<stop offset="0.89029" stop-color="#FB6F05"/>
</radialGradient>
<linearGradient id="paint6_linear_566_9141" x1="636.709" y1="175.405" x2="643.423" y2="180.707" gradientUnits="userSpaceOnUse">
<stop stop-color="#FFF8FF"/>
<stop offset="1" stop-color="#FB6E05"/>
</linearGradient>
<clipPath id="clip0_566_9141">
<rect width="39.093" height="39.093" fill="white" transform="translate(561.314 571.598) rotate(30)"/>
</clipPath>
</defs>
</svg>
