<svg width="927" height="921" viewBox="0 0 927 921" fill="none" xmlns="http://www.w3.org/2000/svg">
<path d="M885.914 476.981C885.914 246.385 699.19 59.4512 468.854 59.4512C238.517 59.4512 51.793 246.385 51.793 476.981C51.793 707.576 238.517 894.51 468.854 894.51C699.19 894.51 885.914 707.576 885.914 476.981Z" stroke="url(#paint0_linear_576_10010)" stroke-width="0.937215" stroke-linecap="round" stroke-dasharray="3.75 5.62"/>
<path d="M862.609 324.71L863.106 308.304C863.022 307.553 862.26 306.061 859.873 306.098C857.365 306.138 863.012 304.044 862.77 301.547C862.736 301.205 862.733 300.986 862.782 300.964C864.327 300.253 865.834 302.255 865.792 303.955C865.622 310.683 865.362 320.318 865.267 321.308C866.462 314.915 868.586 303.115 869.103 298.73C869.192 297.985 870.119 297.168 870.864 297.253C871.703 297.349 872.288 298.13 872.141 298.961C871.007 305.369 869.139 315.293 867.953 319.657L875.407 299.933C875.717 299.114 876.654 298.727 877.452 299.089C878.25 299.453 878.576 300.411 878.167 301.186C877.258 302.908 876.174 305.018 875.068 307.253C873.669 310.085 875.444 310.92 877.031 308.189L879.531 303.884C879.895 303.257 880.709 303.062 881.318 303.453C881.894 303.823 882.074 304.582 881.724 305.171L868.885 326.854C868.661 326.442 867.091 325.533 862.609 324.71Z" fill="#93C856" stroke="#92C856" stroke-width="0.937215"/>
<path d="M845.758 362.766C846.182 364.66 847.687 368.309 850.392 368.363L850.747 368.351C850.627 368.361 850.508 368.366 850.392 368.363L845.214 368.557L845.758 362.766Z" fill="#EF924F"/>
<path d="M869.078 351.938C875.494 333.298 870.498 326.858 867.198 325.968C866.568 325.793 864.195 324.987 862.913 324.78C855.891 324.56 851.527 334.448 850.224 339.42L845.035 339.618C848.824 339.478 849.192 342.606 848.903 344.188C847.045 349.388 845.696 362.646 845.255 368.625L858.144 368.031C864.116 367.96 867.922 357.273 869.078 351.938Z" fill="#E8762F" stroke="#E8762F" stroke-width="0.937215"/>
<path d="M862.898 324.782C862.508 328.619 863.821 336.255 872.186 336.255C872.46 332.479 870.986 324.796 862.898 324.782Z" fill="#F78144"/>
<path d="M862.911 324.736C862.908 324.763 862.9 324.756 862.898 324.784M862.898 324.784C862.508 328.621 863.821 336.257 872.186 336.257C872.46 332.481 870.986 324.797 862.898 324.784Z" stroke="#F78144" stroke-width="0.937215"/>
<path d="M848.671 384.534C845.328 383.849 844.996 373.628 845.25 368.602L866.515 367.679C866.542 367.678 866.568 367.677 866.595 367.676L866.515 367.679C864.405 367.796 862.071 369.859 861.158 370.889C854.241 383.972 849.952 385.437 848.671 384.534Z" fill="#FFCE89"/>
<path d="M853.092 372.777C852.79 369.657 854.877 368.378 855.958 368.127L845.755 368.643L845.932 372.855C847.271 383.462 851.429 383.636 853.341 382.398C855.268 380.928 858.155 376.384 859.293 374.268C858.499 375.516 857.051 375.779 856.491 375.782C854.095 375.612 853.227 373.708 853.092 372.777Z" fill="#FFBD73" stroke="#FFBD73" stroke-width="0.937215"/>
<path d="M847.414 383.721C845.271 381.494 845.082 372.702 845.256 368.584L845.71 368.572C845.672 369.575 846.047 373.395 846.24 375.18C847.964 383.455 851.621 383.52 853.234 382.518C852.171 383.664 851.086 384.254 850.675 384.406C849.064 385.202 847.83 384.281 847.414 383.721Z" fill="#FAAF6B"/>
<path d="M868.62 354.487L846.759 354.398L845.866 361.471L845.499 365.021L845.266 368.599L859.446 368.039C864.018 367.18 867.467 358.646 868.62 354.487Z" fill="#FF9B57"/>
<path d="M868.627 354.47L862.161 354.455C857.498 360.594 863.134 360.175 866.611 359.769C866.996 359.187 868.015 356.473 868.627 354.47Z" fill="#FFB77C"/>
<path d="M861.796 366.753C848.379 368.896 851.761 359.437 855.129 354.439L862.103 354.458C857.451 360.37 863.222 360.484 866.688 359.803C864.525 364.512 862.526 366.399 861.796 366.753Z" fill="#FFAD69"/>
<path d="M845.758 362.766C846.182 364.66 847.687 368.309 850.392 368.363L850.747 368.351C850.627 368.361 850.508 368.366 850.392 368.363L845.214 368.557L845.758 362.766Z" fill="#EF924F"/>
<path d="M866.815 367.667L868.775 367.418L869.806 367.155C870.279 367.034 870.736 367.4 870.722 367.888C870.707 368.413 870.16 368.753 869.682 368.534C869.073 368.255 868.437 368.039 867.784 367.89L866.815 367.667Z" fill="#E8762F"/>
<path d="M875.603 350.467L873.678 350.914L872.679 351.281C872.221 351.449 871.73 351.132 871.693 350.645C871.655 350.12 872.165 349.727 872.663 349.896C873.297 350.111 873.951 350.262 874.616 350.344L875.603 350.467Z" fill="#E8762F"/>
<path d="M850.357 339.342L872.005 339.977C871.6 342.516 870.466 348.449 869.159 351.863L868.435 354.477L846.697 354.472C847.187 351.057 848.333 344.229 848.999 344.24C849.1 342.634 848.51 339.539 845.419 339.593L845.101 339.609C845.21 339.6 845.316 339.595 845.419 339.593L850.357 339.342Z" fill="#FF9034"/>
<path d="M845.419 339.593C848.51 339.539 849.1 342.634 848.999 344.24C848.333 344.229 847.187 351.057 846.697 354.472L868.435 354.477L869.159 351.863C870.466 348.449 871.6 342.516 872.005 339.977L850.357 339.342L845.419 339.593ZM845.419 339.593L845.101 339.609C845.21 339.6 845.316 339.595 845.419 339.593Z" stroke="#FF9034" stroke-width="0.937215"/>
<path d="M851.746 350.202C849.876 348.406 847.934 350.29 847.196 351.456L846.642 354.528L856.573 354.558C856.754 354.441 856.772 354.14 855.402 353.879C853.687 353.551 854.082 352.448 851.746 350.202Z" fill="#F18230"/>
<path d="M873.762 361.425C874.221 361.552 874.695 361.283 874.823 360.825C874.95 360.366 874.681 359.892 874.223 359.764C873.764 359.637 873.289 359.906 873.162 360.365C873.035 360.823 873.304 361.298 873.762 361.425Z" fill="#F38933"/>
<path d="M860.439 388.36C861.175 388.563 861.938 388.132 862.142 387.395C862.347 386.658 861.914 385.895 861.178 385.691C860.441 385.487 859.678 385.919 859.474 386.655C859.27 387.392 859.701 388.155 860.439 388.36Z" fill="#F38933"/>
<path d="M872.764 373.22C873.205 373.342 873.662 373.084 873.784 372.642C873.906 372.201 873.648 371.744 873.207 371.622C872.765 371.499 872.308 371.758 872.186 372.199C872.063 372.641 872.322 373.098 872.764 373.22Z" fill="#F38933"/>
<path d="M863.059 348.711C859.459 348.554 855.722 342.403 854.303 339.347C860.039 339.466 871.579 339.763 871.848 340.006C872.117 340.248 871.36 343.958 870.948 345.782C869.818 346.824 866.66 348.868 863.059 348.711Z" fill="#FFA159"/>
<path d="M863.8 339.64C855.636 338.347 855.546 331.087 856.522 327.619C853.846 329.649 851.192 336.275 850.201 339.335L863.8 339.64Z" fill="#CF5C25"/>
<path d="M884.953 350.12C883.7 349.936 882.949 348.328 882.73 347.547L881.925 350.042L884.953 350.12Z" fill="#BA4E1E"/>
<path d="M874.78 327.549C875.45 327.734 876.144 327.341 876.33 326.671C876.516 326 876.123 325.306 875.453 325.12C874.782 324.934 874.088 325.327 873.901 325.998C873.716 326.668 874.109 327.363 874.78 327.549Z" fill="#FEA158"/>
<path d="M865.377 316.93L862.761 316.904L862.565 324.719C865.548 324.491 868.075 326.019 868.966 326.812L874.936 316.685L872.717 315.529C871.811 317.096 869.949 320.329 869.749 320.729C869.395 321.158 869.301 320.896 869.257 320.801C869.224 320.725 870.479 317.448 871.11 315.819L869.588 315.203L868.231 318.796L868.718 316.641L866.141 316.274L865.348 320.536L865.377 316.93Z" fill="#529E59"/>
<path fill-rule="evenodd" clip-rule="evenodd" d="M442.735 880.481C442.007 880.004 441.235 879.705 440.422 879.586C441.581 879.972 442.642 880.565 443.604 881.367C443.723 881.453 443.843 881.539 443.962 881.625C443.938 881.508 443.877 881.4 443.78 881.3C443.452 880.999 443.104 880.726 442.735 880.481Z" fill="#C29952"/>
<path d="M440.067 879.006C441.245 879.4 442.322 880.007 443.299 880.827C443.515 881.193 443.79 881.525 444.121 881.823C444.971 882.935 445.497 884.178 445.699 885.554C446.859 886.375 447.871 887.354 448.736 888.492C448.882 888.886 449.087 889.256 449.35 889.601C449.588 890.316 449.802 891.046 449.993 891.791C450.05 892.613 450.076 893.426 450.071 894.232C449.96 895.11 449.706 895.941 449.309 896.725C451.475 899.065 452.405 901.773 452.1 904.848C451.804 905.904 451.347 906.875 450.73 907.759C449.182 910.402 446.889 911.582 443.852 911.3C445.941 910.751 447.468 909.478 448.433 907.479C447.134 908.551 445.622 909.085 443.898 909.081C443.875 909.035 443.88 908.994 443.911 908.959C444.119 908.762 444.306 908.545 444.472 908.307C444.72 908.161 444.892 907.932 444.988 907.622C443.424 908.701 441.713 908.891 439.854 908.193C436.867 906.968 435.595 904.784 436.036 901.64C435.602 902.218 435.18 902.794 434.77 903.368C436.06 905.696 436.246 908.039 435.327 910.397C434.618 911.623 433.692 912.627 432.55 913.411C432.273 913.542 431.985 913.641 431.684 913.708C432.585 912.983 433.318 912.103 433.883 911.068C433.428 911.451 432.922 911.745 432.366 911.952C430.053 912.46 427.962 911.866 426.092 910.17C426.442 909.705 426.71 909.194 426.896 908.635C424.209 910.322 421.583 910.067 419.018 907.872C417.878 906.83 417.306 905.553 417.303 904.041C417.496 902.592 417.983 901.268 418.764 900.07C418.071 900.167 417.399 900.34 416.748 900.591C416.9 900.064 417.148 899.582 417.493 899.146C417.038 898.949 416.567 898.849 416.08 898.847C415.342 898.855 414.635 898.981 413.957 899.223L414.013 897.806C414.524 895.99 415.529 894.557 417.029 893.509C416.952 893.304 416.811 893.179 416.604 893.134C415.898 892.924 415.204 892.927 414.521 893.142C414.681 892.841 414.918 892.616 415.231 892.467C416.517 891.834 417.888 891.617 419.344 891.816C416.792 889.855 414.268 889.718 411.77 891.406L411.738 891.25C412.251 888.856 413.603 887.234 415.795 886.386C415.474 885.998 415.09 885.697 414.644 885.482C414.176 885.298 413.724 885.102 413.288 884.893C413.263 884.398 413.291 883.911 413.373 883.432C414.042 881.557 415.341 880.494 417.273 880.241C418.323 880.393 419.346 880.673 420.341 881.082C419.39 880.197 418.821 879.121 418.635 877.854L418.191 878.326C415.154 878.127 412.973 879.41 411.648 882.177L410.849 884.112C409.913 883.564 408.973 883.498 408.029 883.915C407.993 883.05 407.737 882.246 407.263 881.503L407.068 881.494C407.027 882.099 406.93 882.691 406.777 883.269C406.344 884.76 405.474 885.85 404.167 886.537C404.273 886.009 404.491 885.506 404.821 885.026C404.874 884.694 404.894 884.356 404.883 884.011C404.83 883.849 404.728 883.731 404.579 883.657C404.215 884.202 403.745 884.612 403.171 884.885C403.618 884.124 403.872 883.293 403.932 882.392L403.66 882.194C403.664 882.026 403.642 881.855 403.593 881.682C402.592 879.305 400.885 878.261 398.471 878.552C398.569 878.303 398.736 878.116 398.973 877.99C399.829 877.506 400.76 877.278 401.767 877.306C399.796 875.884 397.852 875.816 395.934 877.104C396.413 876.021 397.208 875.319 398.319 874.997L398.241 874.808C397.068 874.538 396.001 874.734 395.042 875.395C395.745 874.014 395.473 873.816 394.225 874.8L394.545 874.106C394.098 874.27 393.643 874.248 393.18 874.041C395.289 873.314 396.288 871.562 396.524 870.777L396.797 870.975C397.074 870.602 397.359 870.235 397.652 869.875C398.169 869.554 398.694 869.23 399.227 868.902C399.383 868.952 399.502 868.907 399.585 868.765C399.845 868.777 400.094 868.738 400.333 868.647C400.646 868.704 400.956 868.709 401.262 868.66C401.479 868.755 401.7 868.828 401.925 868.877C401.95 869.502 402.028 870.133 402.16 870.77C402.245 871.447 402.553 872.002 403.081 872.434L402.712 871.768C402.385 870.205 402.676 868.805 403.586 867.569C403.803 867.332 404.01 867.085 404.206 866.827C404.466 866.75 404.694 866.607 404.889 866.397C405.682 866.057 406.518 865.871 407.4 865.839L408.062 866.056C408.072 866.375 408.021 866.692 407.91 867.005C407.928 867.706 408.171 868.325 408.639 868.86L408.73 868.926C408.887 869.191 409.119 869.382 409.427 869.5C409.394 868.972 409.442 868.455 409.571 867.949C410.234 865.987 411.521 864.671 413.43 864C415.078 864.054 416.584 864.62 417.949 865.698L418.04 865.764C418.934 866.725 419.648 867.819 420.182 869.044C420.295 869.08 420.395 869.064 420.481 868.997C421.031 869.127 421.572 869.255 422.105 869.383C423.233 870.19 424.066 871.238 424.604 872.526C424.89 872.51 425.171 872.559 425.445 872.675C425.877 872.918 426.271 873.204 426.626 873.533C427.238 873.397 427.836 873.235 428.418 873.049C429.318 873.04 430.217 873.032 431.115 873.024C431.275 873.119 431.435 873.147 431.596 873.109C432.004 873.288 432.415 873.41 432.83 873.476C434.775 874.408 436.392 875.76 437.68 877.534C437.862 877.946 438.062 878.357 438.28 878.766C438.881 878.864 439.477 878.944 440.067 879.006Z" fill="#FEF478"/>
<path fill-rule="evenodd" clip-rule="evenodd" d="M433.32 874.244C435.234 875.154 436.826 876.474 438.097 878.204C437.891 877.805 437.658 877.423 437.401 877.058C436.284 875.696 434.924 874.758 433.32 874.244Z" fill="#BE9652"/>
<path fill-rule="evenodd" clip-rule="evenodd" d="M443.953 881.61C443.833 881.523 443.713 881.437 443.594 881.35C443.809 881.71 444.08 882.036 444.408 882.329C444.357 882.205 444.305 882.081 444.254 881.958C444.212 881.806 444.112 881.69 443.953 881.61Z" fill="#EDD16C"/>
<path fill-rule="evenodd" clip-rule="evenodd" d="M440.406 879.637C439.868 879.451 439.318 879.313 438.755 879.223C438.642 879.1 438.576 878.966 438.557 878.818C438.41 878.588 438.239 878.377 438.043 878.186C438.224 878.592 438.423 878.996 438.639 879.399C439.233 879.496 439.822 879.575 440.406 879.637Z" fill="#BD9448"/>
<path fill-rule="evenodd" clip-rule="evenodd" d="M433.331 874.274C432.962 874.059 432.574 873.908 432.167 873.822C432.148 873.852 432.128 873.881 432.109 873.911C432.513 874.088 432.92 874.209 433.331 874.274Z" fill="#B99045"/>
<path fill-rule="evenodd" clip-rule="evenodd" d="M444.164 881.93C444.215 882.054 444.266 882.178 444.318 882.302C445.161 883.399 445.683 884.627 445.885 885.984C447.034 886.795 448.038 887.761 448.896 888.884C448.874 888.781 448.853 888.679 448.832 888.576C448.008 887.527 447.064 886.604 446.001 885.807C445.916 885.213 445.76 884.642 445.531 884.095C445.208 883.291 444.752 882.569 444.164 881.93Z" fill="#BC9550"/>
<path fill-rule="evenodd" clip-rule="evenodd" d="M432.103 873.929C431.948 873.782 431.789 873.754 431.625 873.844C431.783 873.938 431.943 873.967 432.103 873.929Z" fill="#B78E4A"/>
<path fill-rule="evenodd" clip-rule="evenodd" d="M431.615 873.883C430.703 873.678 429.804 873.685 428.918 873.903C429.818 873.896 430.717 873.889 431.615 873.883Z" fill="#BC944B"/>
<path fill-rule="evenodd" clip-rule="evenodd" d="M418.627 866.892C418.473 866.694 418.283 866.513 418.056 866.348C417.488 865.996 416.911 865.664 416.323 865.354C415.901 865.295 415.475 865.204 415.046 865.079C414.637 865.038 414.233 865.048 413.832 865.111C413.861 865.133 413.891 865.155 413.921 865.176C414.001 865.19 414.08 865.204 414.159 865.218C415.787 865.272 417.276 865.83 418.627 866.892Z" fill="#BA914C"/>
<path fill-rule="evenodd" clip-rule="evenodd" d="M418.954 867.098C418.864 867.033 418.774 866.968 418.684 866.902C419.57 867.851 420.278 868.93 420.808 870.139C420.921 870.174 421.02 870.159 421.105 870.093C420.945 870.012 420.844 869.896 420.803 869.743C420.367 868.736 419.75 867.854 418.954 867.098Z" fill="#B9904B"/>
<path fill-rule="evenodd" clip-rule="evenodd" d="M448.793 888.861C448.938 889.251 449.142 889.617 449.404 889.959C449.314 889.539 449.11 889.173 448.793 888.861Z" fill="#B58C46"/>
<path fill-rule="evenodd" clip-rule="evenodd" d="M422.689 870.446C422.241 870.192 421.773 870.027 421.285 869.951C421.216 869.988 421.147 870.026 421.078 870.063C421.624 870.192 422.16 870.319 422.689 870.446Z" fill="#BD9549"/>
<path fill-rule="evenodd" clip-rule="evenodd" d="M428.896 873.999C428.33 874.022 427.779 874.121 427.244 874.297C426.879 873.986 426.491 873.704 426.078 873.453C425.841 873.453 425.614 873.397 425.395 873.284C425.266 873.33 425.166 873.279 425.097 873.133C425.05 872.988 425.009 872.851 424.973 872.719C424.628 872.184 424.265 871.662 423.884 871.153C423.496 870.831 423.088 870.578 422.66 870.396C423.774 871.189 424.598 872.218 425.132 873.482C425.414 873.467 425.691 873.516 425.962 873.63C426.389 873.869 426.778 874.15 427.129 874.473C427.733 874.34 428.322 874.182 428.896 873.999Z" fill="#BE964F"/>
<path fill-rule="evenodd" clip-rule="evenodd" d="M414.146 865.308C414.063 865.293 413.98 865.278 413.898 865.264C413.723 865.317 413.549 865.37 413.375 865.424C412.43 865.736 411.525 866.157 410.661 866.686C410.324 867.031 410.079 867.434 409.926 867.896C409.822 867.952 409.709 867.982 409.587 867.987C409.57 868.202 409.491 868.39 409.35 868.552C409.458 868.609 409.542 868.691 409.602 868.799C409.429 868.883 409.432 869.018 409.61 869.205C409.404 869.236 409.324 869.356 409.369 869.567C409.675 869.82 409.835 870.135 409.851 870.512C409.648 870.494 409.471 870.412 409.32 870.266C409.484 870.534 409.725 870.729 410.043 870.849C410.006 870.315 410.053 869.793 410.183 869.281C410.858 867.3 412.179 865.976 414.146 865.308Z" fill="#D9B408"/>
<path fill-rule="evenodd" clip-rule="evenodd" d="M449.397 890.004C449.366 889.982 449.336 889.961 449.305 889.939C449.545 890.655 449.762 891.386 449.955 892.132C450.013 892.955 450.04 893.769 450.035 894.575C450.156 894.37 450.213 894.146 450.207 893.903C450.212 893.555 450.217 893.205 450.222 892.854C450.143 892.223 450.013 891.599 449.833 890.983C449.688 890.657 449.542 890.331 449.397 890.004Z" fill="#BB944D"/>
<path fill-rule="evenodd" clip-rule="evenodd" d="M424.454 874.281C422.973 873.631 421.503 873.835 420.046 874.891C419.048 874.207 418.005 873.626 416.918 873.147C415.595 872.808 414.43 873.057 413.422 873.893C416.003 873.508 418.149 874.409 419.861 876.595C420.852 874.884 422.325 874.268 424.281 874.747C424.893 874.931 425.484 875.184 426.052 875.506C425.592 874.963 425.059 874.555 424.454 874.281Z" fill="#D9B30B"/>
<path fill-rule="evenodd" clip-rule="evenodd" d="M427.922 877.39C427.747 877.242 427.555 877.125 427.346 877.039C428.442 879.414 427.983 881.305 425.968 882.71C425.335 883.089 424.652 883.343 423.921 883.47C423.906 883.537 423.907 883.603 423.924 883.671C424.433 884.142 424.841 884.68 425.148 885.285C426.893 884.111 428.647 884.239 430.411 885.668C431.078 886.127 431.667 886.663 432.176 887.278C431.794 885.909 431.106 884.706 430.113 883.668C430.179 881.319 429.449 879.227 427.922 877.39Z" fill="#DAB407"/>
<path fill-rule="evenodd" clip-rule="evenodd" d="M424.489 874.252C422.822 873.45 421.324 873.632 419.995 874.796C419.133 873.893 418.122 873.334 416.961 873.119C418.047 873.598 419.088 874.178 420.086 874.862C421.542 873.806 423.009 873.603 424.489 874.252Z" fill="#C18E11"/>
<path fill-rule="evenodd" clip-rule="evenodd" d="M408.028 867.261C407.258 867.139 406.525 867.225 405.828 867.521C405.719 867.619 405.609 867.716 405.5 867.813C406.298 867.475 407.14 867.291 408.028 867.261Z" fill="#BC9450"/>
<path fill-rule="evenodd" clip-rule="evenodd" d="M408.886 867.46C408.806 867.379 408.725 867.365 408.644 867.417C408.654 867.736 408.603 868.053 408.492 868.366C408.511 869.067 408.756 869.686 409.227 870.223C408.956 869.602 408.862 868.96 408.943 868.296C408.873 868.334 408.804 868.371 408.734 868.409C408.845 868.139 408.987 867.889 409.16 867.659C409.069 867.593 408.978 867.526 408.886 867.46Z" fill="#D9B60F"/>
<path fill-rule="evenodd" clip-rule="evenodd" d="M413.384 865.444C412.833 865.433 412.318 865.552 411.838 865.801C410.838 866.289 410.009 866.983 409.352 867.884C409.364 867.766 409.408 867.664 409.485 867.579C409.299 867.433 409.104 867.381 408.898 867.425C408.992 867.492 409.085 867.559 409.179 867.626C409.002 867.858 408.858 868.11 408.746 868.382C408.817 868.344 408.888 868.306 408.959 868.268C408.878 868.939 408.976 869.587 409.254 870.214C409.285 870.236 409.317 870.259 409.348 870.281C409.498 870.427 409.673 870.508 409.875 870.526C409.86 870.15 409.7 869.836 409.397 869.583C409.352 869.373 409.432 869.253 409.637 869.222C409.46 869.036 409.457 868.901 409.63 868.817C409.57 868.709 409.487 868.627 409.379 868.57C409.52 868.409 409.599 868.221 409.616 868.006C409.737 868.002 409.849 867.971 409.952 867.915C410.105 867.454 410.35 867.052 410.685 866.707C411.545 866.178 412.444 865.757 413.384 865.444Z" fill="#D6A606"/>
<path fill-rule="evenodd" clip-rule="evenodd" d="M441.62 893.017C440.782 892.3 439.841 891.95 438.798 891.967C439.881 892.592 440.563 893.505 440.844 894.707C440.885 895.203 440.786 895.661 440.547 896.082C439.787 896.698 439.179 897.45 438.723 898.337C438.815 899.431 439.286 900.324 440.135 901.015C439.547 899.931 439.476 898.842 439.922 897.748C440.879 895.661 442.474 894.984 444.706 895.717C444.046 895.141 443.335 894.648 442.573 894.237C442.233 893.833 441.916 893.426 441.62 893.017Z" fill="#D9B50B"/>
<path fill-rule="evenodd" clip-rule="evenodd" d="M405.488 867.85C405.197 867.883 404.964 868.027 404.789 868.281C405.055 868.204 405.288 868.06 405.488 867.85Z" fill="#B58D4C"/>
<path fill-rule="evenodd" clip-rule="evenodd" d="M404.786 868.297C403.986 868.783 403.352 869.448 402.883 870.292C403.15 870.035 403.416 869.778 403.683 869.521C403.79 869.298 403.944 869.14 404.143 869.045C404.368 868.806 404.583 868.557 404.786 868.297Z" fill="#BA924B"/>
<path d="M403.676 886.806C403.867 886.817 404.021 886.752 404.138 886.612C405.444 885.924 406.313 884.834 406.745 883.342C406.898 882.763 406.995 882.171 407.036 881.566L407.231 881.575C407.705 882.318 407.96 883.122 407.996 883.988C408.939 883.57 409.878 883.635 410.813 884.183L411.612 882.246C412.936 879.478 415.115 878.193 418.149 878.391L418.592 877.919C418.778 879.186 419.346 880.262 420.296 881.147C419.302 880.738 418.281 880.458 417.231 880.307C415.302 880.561 414.003 881.626 413.335 883.501C413.253 883.981 413.225 884.468 413.249 884.963C413.685 885.172 414.136 885.368 414.605 885.552C415.05 885.766 415.433 886.067 415.754 886.455C413.564 887.305 412.213 888.928 411.701 891.323L411.733 891.479C414.228 889.789 416.75 889.925 419.299 891.885C417.844 891.687 416.475 891.905 415.19 892.538C414.877 892.688 414.64 892.914 414.48 893.214C415.162 892.999 415.856 892.995 416.562 893.205C416.768 893.25 416.909 893.375 416.986 893.58C415.487 894.63 414.483 896.063 413.973 897.881L413.916 899.298C414.593 899.055 415.3 898.929 416.038 898.92C416.524 898.922 416.994 899.022 417.449 899.219C417.104 899.656 416.856 900.138 416.704 900.665C417.354 900.414 418.026 900.24 418.719 900.143C417.938 901.342 417.451 902.666 417.259 904.116C417.262 905.629 417.832 906.906 418.971 907.947C421.533 910.143 424.157 910.396 426.841 908.707C426.655 909.266 426.388 909.778 426.038 910.243C427.906 911.939 429.995 912.532 432.305 912.022C432.861 911.815 433.366 911.52 433.821 911.138C433.256 912.173 432.524 913.054 431.624 913.78L431 914.12C430.648 914.123 430.299 914.178 429.954 914.287C429.551 914.131 429.161 914.045 428.783 914.03C429.257 913.975 429.613 913.771 429.853 913.418C429.523 913.41 429.193 913.368 428.863 913.294C427.508 912.838 426.271 912.136 425.152 911.188C425.207 911.131 425.231 911.06 425.224 910.976C424.832 911.209 424.461 911.469 424.111 911.756C423.809 911.965 423.482 912.124 423.129 912.234C420.905 912.102 418.937 911.221 417.226 909.592C415.378 907.645 414.685 905.395 415.146 902.843C414.506 903.268 413.974 903.809 413.55 904.465C413.436 903.414 413.578 902.412 413.975 901.461C412.607 901.591 411.496 902.196 410.645 903.277C406.236 900.849 405.184 897.476 407.487 893.16C407.221 893.026 406.941 892.977 406.647 893.012C405.228 893.237 404.019 893.858 403.018 894.876C401.542 894.274 400.6 893.19 400.191 891.624C401.396 891.352 402.467 890.806 403.403 889.987L403.459 889.697C402.882 889.722 402.303 889.72 401.722 889.691C400.142 889.608 398.756 888.997 397.566 887.858C395.483 885.032 395.265 882.157 396.914 879.233C396.349 879.122 395.847 879.242 395.406 879.593L395.492 879.258C395.351 879.372 395.238 879.511 395.153 879.674L395.094 879.763C394.99 879.707 394.909 879.626 394.851 879.52C394.627 878.311 394.822 877.194 395.436 876.169C395.035 876.219 394.663 876.346 394.318 876.548C394.533 876.041 394.453 876.027 394.078 876.506C394.22 875.976 394.037 875.71 393.529 875.708L393.849 875.014C393.637 875.263 393.416 875.499 393.184 875.723C393.145 875.782 393.096 875.79 393.035 875.746C393.2 875.365 393.189 874.501 393.163 874.117C393.626 874.324 394.08 874.346 394.527 874.182L394.206 874.876C395.453 873.89 395.725 874.088 395.023 875.471C395.981 874.809 397.047 874.612 398.219 874.882L398.297 875.071C397.186 875.393 396.392 876.096 395.914 877.179C397.83 875.891 399.772 875.957 401.741 877.379C400.735 877.351 399.805 877.58 398.95 878.064C398.713 878.191 398.546 878.378 398.448 878.627C400.859 878.335 402.565 879.378 403.565 881.756C403.614 881.929 403.636 882.1 403.631 882.268C403.686 883.408 403.395 884.433 402.758 885.343C403.51 885.11 404.144 884.688 404.658 884.076L404.696 884.633C404.457 885.41 404.117 886.135 403.676 886.806Z" fill="#D9B302"/>
<path fill-rule="evenodd" clip-rule="evenodd" d="M435.235 892.453C435.116 892.332 434.975 892.274 434.812 892.278C434.53 893.103 434.007 893.694 433.242 894.049C434.7 895.366 435.665 896.969 436.137 898.857C436.159 898.961 436.219 899.006 436.319 898.991C436.587 896.735 436.226 894.556 435.235 892.453Z" fill="#D9B509"/>
<path fill-rule="evenodd" clip-rule="evenodd" d="M446.381 900.551C445.773 901.569 444.924 902.334 443.832 902.846C443.552 902.889 443.272 902.932 442.992 902.974C444.546 903.491 445.625 903.002 446.228 901.507C446.312 901.193 446.363 900.874 446.381 900.551Z" fill="#D9B813"/>
<path fill-rule="evenodd" clip-rule="evenodd" d="M402.64 870.278C402.35 870.144 402.061 870.11 401.773 870.175C401.989 870.269 402.209 870.341 402.433 870.391C402.502 870.353 402.571 870.316 402.64 870.278Z" fill="#C09853"/>
<path fill-rule="evenodd" clip-rule="evenodd" d="M401.764 870.189C401.704 870.145 401.643 870.101 401.583 870.057C401.327 870.043 401.078 870.082 400.836 870.173C401.149 870.231 401.458 870.236 401.764 870.189Z" fill="#BB944C"/>
<path fill-rule="evenodd" clip-rule="evenodd" d="M403.648 869.525C403.387 869.781 403.126 870.037 402.864 870.293C402.783 870.346 402.701 870.332 402.619 870.25C402.548 870.288 402.477 870.325 402.406 870.363C402.434 870.994 402.515 871.63 402.652 872.273C402.689 872.308 402.73 872.315 402.775 872.294C402.645 871.219 402.936 870.296 403.648 869.525Z" fill="#C79410"/>
<path fill-rule="evenodd" clip-rule="evenodd" d="M400.833 870.198C400.551 870.082 400.299 870.121 400.082 870.315C400.343 870.328 400.594 870.289 400.833 870.198Z" fill="#C29C60"/>
<path fill-rule="evenodd" clip-rule="evenodd" d="M400.081 870.329C399.923 870.278 399.802 870.323 399.719 870.465C399.876 870.516 399.997 870.471 400.081 870.329Z" fill="#BA9048"/>
<path fill-rule="evenodd" clip-rule="evenodd" d="M404.057 869.025C403.863 869.12 403.713 869.278 403.607 869.499C402.897 870.269 402.607 871.191 402.736 872.265C402.691 872.286 402.65 872.278 402.613 872.243C402.702 872.925 403.016 873.484 403.555 873.921C403.43 873.697 403.304 873.473 403.179 873.25C402.842 871.675 403.134 870.266 404.057 869.025Z" fill="#D9B41A"/>
<path fill-rule="evenodd" clip-rule="evenodd" d="M399.714 870.48C399.153 870.624 398.656 870.889 398.225 871.274C398.185 871.334 398.145 871.395 398.105 871.455C398.634 871.133 399.17 870.808 399.714 870.48Z" fill="#BE9651"/>
<path fill-rule="evenodd" clip-rule="evenodd" d="M398.096 871.482C397.728 871.808 397.343 872.11 396.938 872.389C397.031 872.456 397.125 872.524 397.22 872.591C397.503 872.214 397.796 871.845 398.096 871.482Z" fill="#B89356"/>
<path fill-rule="evenodd" clip-rule="evenodd" d="M443.881 908.933C442.793 909.612 441.607 909.769 440.323 909.405C440.242 909.442 440.151 909.442 440.051 909.406C440.092 909.481 440.134 909.555 440.175 909.629C440.784 910.145 441.435 910.594 442.128 910.977C442.636 911.018 443.132 911.156 443.614 911.391C443.684 911.353 443.754 911.315 443.824 911.277C445.929 910.732 447.466 909.46 448.436 907.461C447.128 908.531 445.605 909.063 443.867 909.056C443.844 909.009 443.849 908.968 443.881 908.933Z" fill="#DAB307"/>
<path fill-rule="evenodd" clip-rule="evenodd" d="M424.329 892.89C423.21 892.071 422.012 891.817 420.734 892.128C420.273 892.32 419.913 892.63 419.652 893.058C420.71 893.549 421.668 894.201 422.528 895.014C422.774 893.98 423.374 893.272 424.329 892.89Z" fill="#D9B406"/>
<path fill-rule="evenodd" clip-rule="evenodd" d="M435.397 910.372C435.279 910.756 435.054 911.166 434.723 911.6C435.573 912.38 436.55 912.803 437.656 912.869C438.892 912.921 440.082 912.749 441.226 912.353C441.581 912.006 441.886 911.611 442.141 911.166C441.443 910.66 440.744 910.153 440.046 909.647C439.316 909.17 438.647 908.619 438.039 907.993C438.493 908.256 438.927 908.549 439.344 908.873C439.711 909.072 440.084 909.255 440.464 909.421C442.046 909.71 443.414 909.337 444.566 908.3C444.814 908.154 444.986 907.927 445.082 907.618C443.515 908.691 441.799 908.878 439.935 908.179C436.939 906.952 435.662 904.77 436.102 901.633C435.668 902.209 435.245 902.783 434.834 903.356C436.129 905.68 436.317 908.019 435.397 910.372Z" fill="#D9B204"/>
<path fill-rule="evenodd" clip-rule="evenodd" d="M443.569 907.459C442.41 908.499 441.034 908.874 439.441 908.583C440.727 908.947 441.915 908.79 443.004 908.111C443.213 907.914 443.402 907.697 443.569 907.459Z" fill="#BE8301"/>
<path fill-rule="evenodd" clip-rule="evenodd" d="M431.803 902.35C430.283 901.098 428.59 900.526 426.723 900.633C426.349 899.895 425.8 899.343 425.074 898.977C425.693 900.254 425.931 901.585 425.786 902.973C427.639 901.713 429.646 901.572 431.806 902.549C431.778 902.478 431.777 902.412 431.803 902.35Z" fill="#D9B50B"/>
<path fill-rule="evenodd" clip-rule="evenodd" d="M393.257 875.666C393.125 875.979 393.039 876.315 393 876.674C393.255 876.95 393.471 877.239 393.648 877.542C393.315 878.328 393.277 879.14 393.533 879.98C393.698 880.078 393.841 880.204 393.962 880.357C394.045 880.505 394.006 880.565 393.844 880.537C394.004 880.693 394.108 880.878 394.155 881.093C394.56 880.684 394.906 880.227 395.195 879.722C395.089 879.666 395.007 879.585 394.949 879.478C394.72 878.265 394.916 877.145 395.536 876.12C395.13 876.169 394.754 876.295 394.405 876.497C394.622 875.989 394.541 875.975 394.162 876.454C394.306 875.923 394.12 875.656 393.606 875.653C393.713 875.421 393.821 875.189 393.928 874.957C393.715 875.207 393.491 875.443 393.257 875.666Z" fill="#B48105"/>
<path fill-rule="evenodd" clip-rule="evenodd" d="M403.59 882.115C403.646 883.259 403.353 884.286 402.711 885.197C403.471 884.966 404.112 884.544 404.632 883.931C404.645 884.118 404.657 884.304 404.67 884.49C404.43 885.269 404.087 885.994 403.642 886.667C403.835 886.678 403.991 886.614 404.109 886.474C404.215 885.944 404.435 885.44 404.768 884.959C404.821 884.627 404.841 884.287 404.829 883.941C404.775 883.779 404.672 883.66 404.521 883.585C404.153 884.131 403.679 884.541 403.099 884.814C403.55 884.052 403.805 883.219 403.865 882.315C403.773 882.248 403.682 882.182 403.59 882.115Z" fill="#FDF068"/>
<path fill-rule="evenodd" clip-rule="evenodd" d="M439.332 908.554C438.96 908.392 438.594 908.214 438.234 908.02C438.464 908.271 438.694 908.522 438.924 908.773C439.609 909.267 440.294 909.762 440.979 910.255C441.017 910.197 441.056 910.139 441.094 910.081C440.418 909.71 439.783 909.272 439.188 908.771C439.148 908.699 439.108 908.627 439.067 908.555C439.165 908.59 439.253 908.59 439.332 908.554Z" fill="#B97A00"/>
<path fill-rule="evenodd" clip-rule="evenodd" d="M438.235 908.034C437.827 907.719 437.401 907.434 436.957 907.178C437.553 907.787 438.209 908.323 438.924 908.787C438.695 908.536 438.465 908.285 438.235 908.034Z" fill="#D5A006"/>
<path fill-rule="evenodd" clip-rule="evenodd" d="M395.24 879.783C394.945 880.542 394.59 881.283 394.175 882.01C394.129 882.893 394.112 883.794 394.125 884.713C394.27 885.327 394.447 885.935 394.656 886.533C394.92 887.092 395.185 887.632 395.451 888.153C396.181 888.908 396.982 889.574 397.853 890.154C397.892 890.068 397.961 890.031 398.059 890.043C399.369 890.608 400.606 890.678 401.772 890.254C401.792 890.291 401.812 890.327 401.832 890.364C400.802 890.895 399.706 891.014 398.544 890.72C398.338 890.635 398.148 890.52 397.975 890.374C397.854 890.892 397.733 891.412 397.612 891.936C397.593 891.965 397.573 891.996 397.554 892.025C397.652 892.496 397.796 892.948 397.989 893.383C398.156 893.485 398.287 893.624 398.381 893.798C398.529 894.19 398.673 894.578 398.813 894.96C399.427 895.537 400 896.147 400.531 896.791C401.268 897.27 402.045 897.637 402.862 897.892C402.911 897.885 402.96 897.877 403.01 897.869C402.992 897.286 403.143 896.787 403.463 896.371C403.696 895.58 404.102 894.895 404.679 894.318C404.95 894.097 405.244 893.919 405.561 893.783C405.562 893.849 405.563 893.915 405.564 893.981C403.937 895.076 403.178 896.635 403.288 898.658C403.254 898.863 403.316 899.039 403.474 899.184C403.61 899.367 403.771 899.527 403.955 899.663C403.897 899.752 403.839 899.841 403.781 899.929C404.25 900.511 404.693 901.114 405.113 901.741C405.292 901.936 405.492 902.103 405.714 902.242C405.656 902.33 405.598 902.419 405.54 902.507C405.6 902.551 405.66 902.594 405.72 902.637C406.728 903.413 407.786 904.093 408.894 904.677C409.385 904.72 409.852 904.884 410.296 905.171C410.74 905.134 411.186 905.197 411.634 905.358C411.606 904.9 411.67 904.905 411.827 905.369C411.796 905.515 411.734 905.642 411.64 905.754C411.76 905.84 411.88 905.928 412 906.015C411.942 906.104 411.884 906.191 411.826 906.279C412.226 906.742 412.511 907.254 412.679 907.812C413.037 908.401 413.499 908.909 414.066 909.338C414.686 909.809 415.326 910.252 415.984 910.663C417.164 911.068 418.318 911.535 419.446 912.064C419.604 912.157 419.763 912.184 419.922 912.147C420.062 912.048 420.209 911.959 420.363 911.879C420.849 912.033 421.334 912.103 421.82 912.088C422.196 912.056 422.571 912.023 422.946 911.991C422.966 911.962 422.985 911.932 423.005 911.903C420.8 911.769 418.849 910.898 417.151 909.291C415.318 907.369 414.628 905.151 415.081 902.638C414.448 903.056 413.921 903.588 413.502 904.233C413.388 903.198 413.527 902.212 413.919 901.275C412.564 901.402 411.464 901.995 410.622 903.059C406.25 900.66 405.203 897.335 407.48 893.086C407.216 892.954 406.939 892.905 406.647 892.939C405.242 893.159 404.044 893.769 403.054 894.77C401.59 894.175 400.655 893.107 400.248 891.564C401.442 891.297 402.502 890.76 403.429 889.955C403.447 889.86 403.466 889.764 403.484 889.669C402.912 889.692 402.338 889.69 401.763 889.661C400.197 889.576 398.823 888.972 397.642 887.849C395.574 885.061 395.355 882.229 396.984 879.351C396.425 879.241 395.927 879.357 395.491 879.703C395.519 879.593 395.547 879.482 395.575 879.372C395.436 879.485 395.324 879.622 395.24 879.783Z" fill="#B38201"/>
<path fill-rule="evenodd" clip-rule="evenodd" d="M441.274 912.3C440.129 912.697 438.937 912.868 437.7 912.815C436.593 912.749 435.614 912.327 434.764 911.547C435.095 911.112 435.32 910.701 435.439 910.316C434.727 911.539 433.799 912.54 432.653 913.321C432.633 913.35 432.613 913.38 432.594 913.41C433.063 913.8 433.578 914.041 434.138 914.133C434.691 914.113 435.214 914.273 435.71 914.612C435.814 914.68 435.925 914.716 436.042 914.72C436.457 914.763 436.868 914.754 437.275 914.69C438.859 914.336 440.192 913.539 441.274 912.3Z" fill="#B38104"/>
<path fill-rule="evenodd" clip-rule="evenodd" d="M442.627 910.59C442.14 910.353 441.639 910.214 441.124 910.172C441.085 910.232 441.045 910.292 441.005 910.352C440.746 910.8 440.437 911.199 440.077 911.548C438.982 912.795 437.631 913.596 436.023 913.951C436.271 914.036 436.52 914.038 436.772 913.958C437.31 913.863 437.811 913.692 438.275 913.444C438.591 913.207 438.913 912.996 439.242 912.81C439.399 912.609 439.569 912.421 439.753 912.246C440.204 911.733 440.613 911.184 440.978 910.6C441.058 910.479 441.137 910.359 441.217 910.239C441.671 910.487 442.141 910.604 442.627 910.59Z" fill="#B27B1F"/>
<path fill-rule="evenodd" clip-rule="evenodd" d="M395.264 881.238C395.245 881.268 395.225 881.298 395.205 881.328C394.916 881.833 394.568 882.291 394.161 882.702C394.113 882.486 394.009 882.3 393.848 882.143C394.011 882.172 394.05 882.112 393.967 881.963C393.845 881.81 393.701 881.684 393.535 881.585C393.558 881.853 393.613 882.115 393.699 882.368C394.017 882.703 394.175 883.084 394.173 883.508C394.598 882.768 394.962 882.011 395.264 881.238Z" fill="#B27312"/>
<path fill-rule="evenodd" clip-rule="evenodd" d="M394.47 882.439C394.262 882.997 394.15 883.577 394.133 884.179C394.234 884.315 394.236 884.448 394.139 884.58C394.2 884.624 394.21 884.677 394.171 884.736C394.298 885.778 394.584 886.777 395.027 887.737C395.236 888.075 395.482 888.385 395.763 888.668C395.493 888.139 395.225 887.591 394.956 887.025C394.745 886.417 394.566 885.802 394.418 885.179C394.406 884.247 394.423 883.334 394.47 882.439Z" fill="#B27A21"/>
<path fill-rule="evenodd" clip-rule="evenodd" d="M434.206 914.024C434.225 913.995 434.245 913.965 434.264 913.936C433.776 913.602 433.259 913.445 432.715 913.465C433.193 913.714 433.691 913.9 434.206 914.024Z" fill="#B27C2E"/>
<path fill-rule="evenodd" clip-rule="evenodd" d="M397.77 890.372C397.719 890.515 397.62 890.664 397.474 890.82C397.424 891.277 397.44 891.731 397.524 892.182C397.647 891.65 397.77 891.121 397.894 890.594C398.07 890.743 398.263 890.861 398.473 890.947C399.655 891.247 400.771 891.128 401.82 890.589C401.8 890.552 401.779 890.515 401.758 890.478C400.572 890.907 399.312 890.834 397.98 890.258C397.88 890.247 397.81 890.284 397.77 890.372Z" fill="#B47904"/>
<path fill-rule="evenodd" clip-rule="evenodd" d="M431.425 912.779C431.145 912.91 430.852 913.009 430.547 913.076C430.336 913.189 430.125 913.303 429.914 913.416C429.944 913.438 429.975 913.461 430.006 913.483C430.506 913.379 430.959 913.174 431.366 912.869C431.386 912.839 431.405 912.809 431.425 912.779Z" fill="#BB8F44"/>
<path fill-rule="evenodd" clip-rule="evenodd" d="M429.907 913.449C429.553 913.451 429.202 913.505 428.855 913.613C429.234 913.715 429.585 913.66 429.907 913.449Z" fill="#BE8C3E"/>
<path fill-rule="evenodd" clip-rule="evenodd" d="M397.969 893.318C397.97 893.451 397.972 893.585 397.974 893.718C398.197 893.956 398.331 894.229 398.375 894.537C399.473 896.414 401.036 897.68 403.063 898.333C403.168 898.429 403.255 898.536 403.322 898.654C403.212 896.608 403.98 895.032 405.627 893.926C405.626 893.859 405.625 893.792 405.624 893.726C405.303 893.863 405.006 894.043 404.731 894.266C404.147 894.849 403.737 895.541 403.5 896.342C403.176 896.762 403.023 897.267 403.041 897.856C402.991 897.864 402.941 897.871 402.892 897.879C402.066 897.621 401.281 897.249 400.536 896.764C399.999 896.113 399.421 895.495 398.801 894.911C398.659 894.525 398.514 894.133 398.364 893.737C398.269 893.561 398.137 893.421 397.969 893.318Z" fill="#B57B19"/>
<path fill-rule="evenodd" clip-rule="evenodd" d="M395.426 888.279C395.564 888.528 395.715 888.767 395.88 888.996C396.408 889.463 396.947 889.918 397.497 890.361C397.491 890.485 397.502 890.601 397.532 890.71C397.675 890.557 397.772 890.411 397.821 890.271C396.952 889.694 396.154 889.03 395.426 888.279Z" fill="#B3792A"/>
<path fill-rule="evenodd" clip-rule="evenodd" d="M425.161 911.148C425.111 911.491 424.906 911.668 424.547 911.68C425.697 912.649 426.943 913.445 428.286 914.063C428.833 914.275 429.377 914.322 429.917 914.203C429.519 914.049 429.132 913.964 428.758 913.948C429.227 913.894 429.579 913.695 429.816 913.349C429.489 913.34 429.163 913.298 428.836 913.224C427.495 912.774 426.27 912.083 425.161 911.148Z" fill="#B48304"/>
<path fill-rule="evenodd" clip-rule="evenodd" d="M424.004 911.661C424.034 911.683 424.064 911.704 424.094 911.726C424.96 912.389 425.877 913.008 426.844 913.586C427.264 913.834 427.7 913.977 428.153 914.013C426.812 913.396 425.567 912.603 424.418 911.635C424.777 911.623 424.981 911.446 425.032 911.104C425.086 911.048 425.11 910.978 425.102 910.896C424.715 911.124 424.349 911.379 424.004 911.661Z" fill="#B47817"/>
<path fill-rule="evenodd" clip-rule="evenodd" d="M421.825 912.176C421.333 912.191 420.843 912.121 420.352 911.965C420.196 912.046 420.048 912.136 419.906 912.235C420.227 912.292 420.548 912.349 420.868 912.405C421.057 912.322 421.256 912.291 421.467 912.312C421.586 912.267 421.705 912.221 421.825 912.176Z" fill="#B27A20"/>
<path fill-rule="evenodd" clip-rule="evenodd" d="M410.289 905.208C410.653 905.372 411.032 905.472 411.425 905.508C411.534 905.732 411.606 905.959 411.643 906.19C411.789 906.516 411.933 906.839 412.074 907.158C412.259 907.407 412.461 907.641 412.68 907.86C412.512 907.299 412.226 906.786 411.824 906.322C411.882 906.233 411.941 906.144 411.999 906.055C411.879 905.968 411.758 905.88 411.638 905.792C411.732 905.681 411.795 905.551 411.826 905.404C411.669 904.938 411.604 904.936 411.632 905.396C411.183 905.234 410.735 905.171 410.289 905.208Z" fill="#B27A24"/>
<path fill-rule="evenodd" clip-rule="evenodd" d="M410.283 905.276C409.839 904.99 409.373 904.826 408.883 904.783C409.142 904.96 409.42 905.075 409.718 905.127C409.896 905.27 410.085 905.319 410.283 905.276Z" fill="#B57F38"/>
<path fill-rule="evenodd" clip-rule="evenodd" d="M419.438 912.195C418.316 911.671 417.168 911.208 415.994 910.807C415.34 910.399 414.704 909.961 414.086 909.494C414.896 910.239 415.791 910.886 416.771 911.433C417.622 911.856 418.51 912.111 419.438 912.195Z" fill="#B37C2D"/>
<path fill-rule="evenodd" clip-rule="evenodd" d="M408.88 904.812C407.781 904.236 406.731 903.565 405.73 902.801C406.222 903.282 406.769 903.718 407.369 904.109C407.839 904.464 408.343 904.698 408.88 904.812Z" fill="#AC7428"/>
<path d="M112.234 284.199C113.626 292.767 107.809 300.841 99.2407 302.234C90.6725 303.626 82.5981 297.809 81.2058 289.241C79.8136 280.673 85.6308 272.598 94.1989 271.206C102.767 269.814 110.842 275.631 112.234 284.199Z" fill="#FEBA2A" stroke="black" stroke-width="0.0969695"/>
<g filter="url(#filter0_f_576_10010)">
<path d="M99.3327 299.757C106.615 298.573 111.576 291.811 110.413 284.652C109.249 277.493 102.403 272.649 95.1201 273.832C87.8376 275.015 82.8769 281.778 84.0402 288.937C85.2034 296.096 92.0501 300.94 99.3327 299.757Z" fill="#FB6E05"/>
</g>
<g filter="url(#filter1_f_576_10010)">
<path d="M91.2519 291.034C95.5206 290.34 98.4188 286.317 97.7252 282.048C97.0316 277.78 93.0087 274.882 88.74 275.575C84.4712 276.269 81.573 280.292 82.2666 284.56C82.9603 288.829 86.9831 291.727 91.2519 291.034Z" fill="url(#paint1_radial_576_10010)"/>
<path d="M91.2519 291.034C95.5206 290.34 98.4188 286.317 97.7252 282.048C97.0316 277.78 93.0087 274.882 88.74 275.575C84.4712 276.269 81.573 280.292 82.2666 284.56C82.9603 288.829 86.9831 291.727 91.2519 291.034Z" fill="url(#paint2_linear_576_10010)" fill-opacity="0.2"/>
</g>
<g filter="url(#filter2_f_576_10010)">
<path d="M99.5255 273.435C98.5717 273.394 98.017 273.471 96.4538 273.669C94.1653 274.118 92.2052 274.85 90.5625 275.798C92.0179 273.525 93.8613 272.394 96.2105 272.172C100.259 272.185 100.162 273.544 99.5255 273.435Z" fill="white" fill-opacity="0.25"/>
<path d="M92.5842 300.853C88.0427 298.142 85.2145 294.065 84.2998 289.867C83.8327 286.992 81.8131 287.214 82.297 290.192C83.282 294.486 86.4755 298.501 92.5842 300.853Z" fill="white" fill-opacity="0.25"/>
</g>
<path d="M92.745 288.783L94.7999 289.87L93.7887 287.941L95.6623 286.431L93.206 286.83L92.078 284.678L91.6996 287.075L89.2578 287.471L91.5036 288.316L91.1649 290.461L92.745 288.783Z" fill="#DF4104" stroke="#D13600" stroke-width="0.139292"/>
<path d="M101.128 287.419L103.183 288.506L102.172 286.577L104.045 285.066L101.589 285.466L100.461 283.314L100.082 285.71L97.6406 286.107L99.8864 286.952L99.5477 289.097L101.128 287.419Z" fill="#DF4104" stroke="#D13600" stroke-width="0.139292"/>
<defs>
<filter id="filter0_f_576_10010" x="76.5984" y="266.382" width="41.2563" height="40.8266" filterUnits="userSpaceOnUse" color-interpolation-filters="sRGB">
<feFlood flood-opacity="0" result="BackgroundImageFix"/>
<feBlend mode="normal" in="SourceGraphic" in2="BackgroundImageFix" result="shape"/>
<feGaussianBlur stdDeviation="3.63635" result="effect1_foregroundBlur_576_10010"/>
</filter>
<filter id="filter1_f_576_10010" x="70.0429" y="263.351" width="39.9064" height="39.9064" filterUnits="userSpaceOnUse" color-interpolation-filters="sRGB">
<feFlood flood-opacity="0" result="BackgroundImageFix"/>
<feBlend mode="normal" in="SourceGraphic" in2="BackgroundImageFix" result="shape"/>
<feGaussianBlur stdDeviation="6.06059" result="effect1_foregroundBlur_576_10010"/>
</filter>
<filter id="filter2_f_576_10010" x="81.253" y="271.202" width="19.5722" height="30.621" filterUnits="userSpaceOnUse" color-interpolation-filters="sRGB">
<feFlood flood-opacity="0" result="BackgroundImageFix"/>
<feBlend mode="normal" in="SourceGraphic" in2="BackgroundImageFix" result="shape"/>
<feGaussianBlur stdDeviation="0.484847" result="effect1_foregroundBlur_576_10010"/>
</filter>
<linearGradient id="paint0_linear_576_10010" x1="51.7866" y1="59.4449" x2="886.856" y2="893.578" gradientUnits="userSpaceOnUse">
<stop offset="0.146" stop-color="#45E2D5" stop-opacity="0"/>
<stop offset="0.302" stop-color="#45E2D5" stop-opacity="0.39"/>
<stop offset="0.427" stop-color="#45E2D5"/>
<stop offset="0.568" stop-color="#45E2D5" stop-opacity="0"/>
<stop offset="0.682" stop-color="#45E2D5" stop-opacity="0.66"/>
<stop offset="0.807" stop-color="#45E2D5" stop-opacity="0.29"/>
<stop offset="0.899" stop-color="#45E2D5" stop-opacity="0.37"/>
</linearGradient>
<radialGradient id="paint1_radial_576_10010" cx="0" cy="0" r="1" gradientUnits="userSpaceOnUse" gradientTransform="translate(89.7858 283.533) rotate(15.5911) scale(1.53721 1.53721)">
<stop offset="0.203125" stop-color="#FB6E05"/>
<stop offset="0.579486" stop-color="#F9FAFE" stop-opacity="0.25"/>
<stop offset="0.89029" stop-color="#FB6F05"/>
</radialGradient>
<linearGradient id="paint2_linear_576_10010" x1="87.0463" y1="282.441" x2="94.5243" y2="286.598" gradientUnits="userSpaceOnUse">
<stop stop-color="#FFF8FF"/>
<stop offset="1" stop-color="#FB6E05"/>
</linearGradient>
</defs>
</svg>
