<svg width="40" height="40" viewBox="0 0 40 40" fill="none" xmlns="http://www.w3.org/2000/svg">
<g clip-path="url(#clip0_412_10125)">
<rect width="40" height="40" fill="#5662F6"/>
<path d="M28.6644 11.8621C27.0762 11.1373 25.3628 10.6124 23.5745 10.3125C23.5369 10.3125 23.5119 10.325 23.4869 10.35C23.2618 10.7374 23.0242 11.2373 22.8491 11.6247C20.9232 11.3372 19.0097 11.3372 17.1338 11.6247C16.9712 11.2248 16.7211 10.7374 16.496 10.35C16.4835 10.325 16.446 10.3125 16.421 10.3125C14.6326 10.6124 12.9193 11.1498 11.331 11.8621C11.3185 11.8621 11.306 11.8746 11.2935 11.8871C8.05439 16.6483 7.16646 21.2971 7.60417 25.8834C7.60417 25.9084 7.61668 25.9334 7.64169 25.9459C9.76773 27.4955 11.8437 28.4328 13.8697 29.0576C13.9072 29.0701 13.9323 29.0576 13.9573 29.0326C14.4325 28.3828 14.8702 27.708 15.2329 26.9831C15.2579 26.9457 15.2329 26.8957 15.1954 26.8707C14.52 26.6207 13.8697 26.3083 13.2444 25.9584C13.1944 25.9334 13.1944 25.8584 13.2319 25.8334C13.357 25.7335 13.4945 25.6335 13.6196 25.5335C13.6446 25.521 13.6696 25.5085 13.6946 25.521C17.7841 27.358 22.2238 27.358 26.2633 25.521C26.2883 25.5085 26.3258 25.5085 26.3508 25.5335C26.4759 25.6335 26.6009 25.7335 26.7385 25.8334C26.7885 25.8709 26.776 25.9334 26.726 25.9584C26.1007 26.3208 25.4504 26.6207 24.775 26.8707C24.725 26.8832 24.7125 26.9332 24.7375 26.9831C25.1127 27.6955 25.5379 28.3828 26.0132 29.0201C26.0382 29.0451 26.0632 29.0576 26.1007 29.0451C28.1392 28.4203 30.2152 27.483 32.3537 25.9459C32.3663 25.9334 32.3788 25.9084 32.3913 25.8834C32.9165 20.5723 31.5158 15.9735 28.6895 11.8871C28.6895 11.8871 28.677 11.8746 28.6644 11.8621ZM15.8457 23.0967C14.6076 23.0967 13.5946 21.9844 13.5946 20.6223C13.5946 19.2602 14.5951 18.148 15.8457 18.148C17.1088 18.148 18.1093 19.2727 18.0968 20.6223C18.0968 21.9844 17.0963 23.0967 15.8457 23.0967ZM24.1622 23.0967C22.9241 23.0967 21.9111 21.9844 21.9111 20.6223C21.9111 19.2602 22.9116 18.148 24.1622 18.148C25.4254 18.148 26.4259 19.2727 26.4133 20.6223C26.4133 21.9844 25.4254 23.0967 24.1622 23.0967Z" fill="white"/>
</g>
<defs>
<clipPath id="clip0_412_10125">
<rect width="40" height="40" rx="20" fill="white"/>
</clipPath>
</defs>
</svg>
